<svg width="99.99999999999999" height="99.99999999999999" xmlns="http://www.w3.org/2000/svg" xmlns:xlink="http://www.w3.org/1999/xlink" stroke="null" style="vector-effect: non-scaling-stroke;">
 <g stroke="null">
  <title stroke="null">background</title>
  <rect stroke="null" fill="none" id="canvas_background" height="402" width="582" y="-1" x="-1"/>
 </g>
 <g stroke="null">
  <title stroke="null">Layer 1</title>
  <defs stroke="null">
   <circle stroke="null" r="50" id="circle" cy="74" cx="23"/>
  </defs>
  <use stroke="null" transform="matrix(2.1766935305359993,0,0,1.2827645909141743,-55.79040114951091,-12.951270822859794) " x="26.942113" y="-24.122589" id="svg_3" xlink:href="#circle" fill="#ededed"/>
  <clipPath stroke="null" id="circle_1_">
   <use stroke="null" id="svg_4" xlink:href="#circle"/>
  </clipPath>
  <defs stroke="null">
   <path stroke="null" id="shoulders" d="m36,95.9c0,4 4.7,5.2 7.1,5.8c7.6,2 22.8,5.9 22.8,5.9c3.2,1.1 5.7,3.5 7.1,6.6l0,9.8l-100,0l0,-9.8c1.3,-3.1 3.9,-5.5 7.1,-6.6c0,0 15.2,-3.9 22.8,-5.9c2.4,-0.6 7.1,-1.8 7.1,-5.8c0,-4 0,-10.9 0,-10.9l26,0c0,0 0,6.9 0,10.9z"/>
  </defs>
  <use stroke="null" transform="matrix(1.0016611814498901,0,0,1.0470086336135864,0.00037302627978519354,-2.861763903809333) " x="26.942113" y="-24.122589" id="svg_6" xlink:href="#shoulders" fill="#2b4162"/>
  <clipPath stroke="null" id="shoulders_1_">
   <use stroke="null" id="svg_7" xlink:href="#shoulders"/>
  </clipPath>
  <path stroke="null" id="head-shadow" fill="#D4B08C" d="m50.142113,10.877411c0.1,0 0.1,0 0.2,0c0,0 0,0 0,0c3.3,0 8.2,0.2 11.4,2c3.3,1.9 7.3,5.6 8.5,12.1c2.4,13.7 -2.1,35.4 -6.3,42.4c-4,6.7 -9.8,9.2 -13.5,9.4c0,0 -0.1,0 -0.1,0c-0.1,0 -0.1,0 -0.2,0c-0.1,0 -0.1,0 -0.2,0c0,0 -0.1,0 -0.1,0c-3.7,-0.2 -9.5,-2.7 -13.5,-9.4c-4.2,-7 -8.7,-28.7 -6.3,-42.4c1.2,-6.5 5.2,-10.2 8.5,-12.1c3.2,-1.8 8.1,-2 11.4,-2c0,0 0,0 0,0c0.1,0 0.1,0 0.2,0l0,0z" clip-path="url(#shoulders_1_)"/>
  <path stroke="null" style="vector-effect: non-scaling-stroke;" id="head" fill="#435477" d="m49.54211,15.87741c19.1,0 20.7,13.8 20.8,15.1c1.1,11.9 -3,28.1 -6.8,33.7c-4,5.9 -9.8,8.1 -13.5,8.3c-0.2,0 -0.2,0 -0.3,0c-0.1,0 -0.1,0 -0.2,0c-3.8,-0.3 -9.6,-2.5 -13.6,-8.4c-3.8,-5.6 -7.9,-21.8 -6.8,-33.8c0.1,-1.2 1.3,-14.9 20.4,-14.9z"/>
 </g>
</svg>