<?xml version="1.0" encoding="UTF-8"?>
<svg width="168px" height="121px" viewBox="0 0 168 121" version="1.1" xmlns="http://www.w3.org/2000/svg" xmlns:xlink="http://www.w3.org/1999/xlink">
    <!-- Generator: Sketch 58 (84663) - https://sketch.com -->
    <title>cloud-small</title>
    <desc>Created with Sketch.</desc>
    <g id="Page-1" stroke="none" stroke-width="1" fill="none" fill-rule="evenodd">
        <g id="Artboard" transform="translate(-72.000000, -187.000000)" fill="#CDDEEE" fill-rule="nonzero">
            <g id="cloud-small" transform="translate(72.000000, 187.000000)">
                <path d="M1.42108547e-14,84.96 C1.42108547e-14,83.2 1.42108547e-14,81.44 1.42108547e-14,79.68 C0.084,79.437 0.221,79.2 0.244,78.951 C1.259,67.794 5.87,58.417 14.221,50.941 C22.445,43.579 32.114,40.039 43.154,40.28 C44.664,40.313 46.173,40.413 47.742,40.485 C47.826,40.13 47.929,39.791 47.984,39.444 C49.734,28.452 54.8,19.279 63.093,11.873 C69.95,5.749 77.916,1.996 87.025,0.686 C88.577,0.463 90.128,0.229 91.68,-1.42108547e-14 C92.8,-1.42108547e-14 93.92,-1.42108547e-14 95.04,-1.42108547e-14 C95.243,0.077 95.441,0.201 95.651,0.225 C97.83,0.479 100.037,0.575 102.186,0.983 C114.581,3.338 124.461,9.704 131.7,20.014 C136.128,26.32 138.749,33.396 139.689,41.058 C139.835,42.249 140.267,42.894 141.455,43.334 C145.534,44.846 149.267,47.055 152.509,49.93 C164.827,60.852 169.901,74.493 166.721,90.705 C164.067,104.233 156.044,113.93 143.764,120.111 C143.046,120.472 142.173,120.695 141.372,120.696 C102.694,120.724 64.015,120.709 25.337,120.739004 C21.747,120.742 19.078,119.189 16.879,116.513 C16.072,115.531 15.219,114.572 14.282,113.716 C7.25,107.284 2.672,99.476 0.917,90.068 C0.6,88.367 0.305,86.663 1.42108547e-14,84.96 Z"></path>
            </g>
        </g>
    </g>
</svg>