<?xml version="1.0" encoding="UTF-8"?>
<svg width="264px" height="141px" viewBox="0 0 264 141" version="1.1" xmlns="http://www.w3.org/2000/svg" xmlns:xlink="http://www.w3.org/1999/xlink">
    <!-- Generator: Sketch 58 (84663) - https://sketch.com -->
    <title>cloud-med</title>
    <desc>Created with Sketch.</desc>
    <g id="Page-1" stroke="none" stroke-width="1" fill="none" fill-rule="evenodd">
        <g id="Artboard" transform="translate(-31.000000, -22.000000)" fill="#E3EBF5" fill-rule="nonzero">
            <g id="cloud-med" transform="translate(31.000000, 22.000000)">
                <path d="M125.699907,140.957836 C97.110378,140.957836 68.5208489,140.912826 39.9323209,141 C34.8350561,141.01585 30.1041698,139.783568 25.5564726,137.766107 C16.0456493,133.547143 9.04742107,126.655568 4.55077665,117.281426 C2.02416702,112.015223 0.506599578,106.477958 0.108188074,100.611617 C-0.587530507,90.3832799 2.06921354,81.1551712 8.16450914,72.9482959 C12.4929799,67.1209643 18.1498226,62.7399632 24.2150872,58.8720794 C31.3134188,54.345045 38.8301826,50.6241947 46.6933041,47.6195081 C54.5864566,44.603819 62.6718077,42.2742867 71.0534648,41.0580088 C74.0495593,40.6229094 74.010519,40.6149076 74.6381673,37.6432285 C76.4950852,28.8502193 80.3340503,21.1384571 87.1230624,15.0650693 C91.9580563,10.7390808 97.5618443,7.73539444 103.610091,5.48988133 C110.72544,2.84827771 118.071027,1.2369095 125.617822,0.474735341 C131.924336,-0.16241025 138.219838,-0.152407964 144.528354,0.469734198 C152.926028,1.29792344 161.08946,3.0723289 168.910538,6.2770612 C175.295132,8.8936591 181.031056,12.5234885 186.154348,17.1695502 C192.030417,22.4977677 196.452985,28.8222129 199.571206,36.0768706 C200.038689,37.164119 200.649319,37.4941945 201.820529,37.5061972 C211.136151,37.5992185 220.289605,38.7884902 229.176784,41.7121583 C239.591541,45.1399416 247.395602,51.8084653 253.129524,61.0105681 C257.621163,68.2192153 260.942594,75.9389793 262.848563,84.2298738 C265.465265,95.6174759 263.606345,106.273911 257.431968,116.175173 C253.140536,123.056746 247.163362,128.128905 240.165134,132.095811 C232.575295,136.398795 224.376827,139.000389 215.898069,140.819805 C215.242392,140.960837 214.547674,140.951835 213.869975,140.952835 C184.480619,140.958837 155.090263,140.957836 125.699907,140.957836 Z"></path>
            </g>
        </g>
    </g>
</svg>