<svg id="Layer_1" data-name="Layer 1" xmlns="http://www.w3.org/2000/svg" viewBox="0 0 34.07 36.49"><defs><style>.cls-1{fill:#a97c50;}.cls-2{fill:#fff;stroke-width:2.5px;}.cls-2,.cls-3{stroke:#a97c50;stroke-miterlimit:10;}.cls-3{fill:none;stroke-width:2px;}.cls-4{fill:#ffc716;}</style></defs><title>hacklahoma_bee</title><path class="cls-1" d="M20.82,44.15h6.23a1.25,1.25,0,0,0,0-2.5H20.82a1.25,1.25,0,0,0,0,2.5Z" transform="translate(-19.61 -19.83)"/><path class="cls-2" d="M31.79,30.79c-.14-.18-.62-.18-.83-.24a5.45,5.45,0,0,1-1.05-.45A6.2,6.2,0,0,1,28,28.51a3.85,3.85,0,0,1-.84-3.13,4.45,4.45,0,0,1,1.43-2.33,8,8,0,0,1,4.34-1.89,11,11,0,0,1,4.83.52,10.24,10.24,0,0,1,4.41,2.76,7.66,7.66,0,0,1,1.78,6.24" transform="translate(-19.61 -19.83)"/><path class="cls-3" d="M44.79,31.91c.72-3.66,2.38-6,5.82-6" transform="translate(-19.61 -19.83)"/><path class="cls-4" d="M43.54,29.85H34.25a5,5,0,0,0-4.33,2.5l-4.64,8a5,5,0,0,0,0,5l4.64,8a5,5,0,0,0,4.33,2.5h9.29a5,5,0,0,0,4.33-2.5l4.64-8a5,5,0,0,0,0-5l-4.64-8A5,5,0,0,0,43.54,29.85Z" transform="translate(-19.61 -19.83)"/><path class="cls-1" d="M51.87,27.42a1.88,1.88,0,0,0,0-3.75,1.88,1.88,0,0,0,0,3.75Z" transform="translate(-19.61 -19.83)"/><path class="cls-1" d="M45.7,44.42a1.88,1.88,0,0,0,0-3.75,1.88,1.88,0,0,0,0,3.75Z" transform="translate(-19.61 -19.83)"/><path class="cls-1" d="M31.4,30.37a49.38,49.38,0,0,0,0,25.06,1.25,1.25,0,0,0,2.41-.67,46.88,46.88,0,0,1,0-23.73,1.25,1.25,0,0,0-2.41-.66Z" transform="translate(-19.61 -19.83)"/><path class="cls-1" d="M38.26,30.37a49.49,49.49,0,0,0,0,25.06,1.25,1.25,0,0,0,2.41-.67,46.88,46.88,0,0,1,0-23.73,1.25,1.25,0,0,0-2.41-.66Z" transform="translate(-19.61 -19.83)"/></svg>