<svg version="1" xmlns="http://www.w3.org/2000/svg" width="413.333" height="413.333" viewBox="0 0 310.000000 310.000000"><path d="M250.6 34.3c-1.5 5.7.2 12.9 3.9 16.9 2.2 2.4 2.3 2.8.8 2.9-1 0-27.2.1-58.3.1h-56.5L129 48.4l-11.5-5.9-28.2-.1c-24.8-.1-28.3-.3-29.8-1.7-.9-.9-2.2-1.7-2.8-1.8-.7 0-2-.2-3-.4s-3 .7-4.4 2c-3.6 3-3.8 8.9-.4 11.6 2.8 2.3 8.4 2.5 10.1.4 1.1-1.3 5.5-1.5 28.6-1.5H115l7.5 3.7c4.1 2.1 7.5 4 7.5 4.4 0 .4-5.6 4.5-12.5 9.3l-12.6 8.5-21.2.1c-11.7.1-22.4.1-23.8.1-2.1-.1-2.8-.7-3.2-2.9-.7-3.6-6-8.8-11.9-11.8L40 60l-.6 2.7c-1 3.7-1 8.2-.1 11.5L40 77H29.1c-8.1 0-11.2-.4-12-1.4-.7-.8-2.3-1.7-3.6-2-8-2-13.3 9-6.7 14 2.3 1.8 7.7 1.7 9.5 0 1.3-1.3 7.7-1.9 17-1.7 2.3.1 2.6.4 1.7 1.8-.5 1-1.6 3.5-2.4 5.5-1.4 3.5-1.4 3.9.4 4.8 4.6 2.4 13.8.1 17.9-4.5 1.5-1.8 3.5-4.2 4.4-5.5 1.5-2.2 1.7-2.2 27.1-2.3 14.1 0 25.6-.4 25.6-.8 0-.5.5-.9 1-.9.6 0 7.9-4.7 16.3-10.5L140.5 63h18.4c10.1 0 18.2.2 18 .5-.6.5-12.2 7-22.9 12.7-4.1 2.2-7.9 4.4-8.5 4.9-1 1-.9 1 4.2 1.3 1.8.1 3.5.5 4 .9.4.4-1.5.6-4.2.4-4.2-.3-6 .3-13.9 4.3-5 2.6-10.7 5.7-12.6 6.9-1.9 1.2-4.3 2.4-5.2 2.7-5.6 1.9 1.9 2.4 37.7 2.5 89 .1 95.5 0 95.5-1 0-.9-6.3-4.7-18.8-11.3-5.6-2.9-8.5-3.8-12.3-3.8-2.7 0-4.9-.4-4.9-.8s1.5-.6 3.4-.4c1.8.2 3.6 0 3.9-.5.5-.8-23.8-15.2-29.5-17.5-1-.4-1.8-1-1.8-1.3 0-.3 12.8-.5 28.4-.5h28.4l-1.5 3.1c-1 2.1-1.2 3.4-.5 4.1 1.3 1.3 11.2 1.2 12.5-.1 1.9-1.9 2.2-1.2 2.1 3.9-.1 2.7.3 6.8.8 9.1 1 3.6 1.3 4 3.6 3.4 1.3-.3 3.1-1.3 3.9-2 .8-.8 1.8-1.5 2.2-1.5.3 0 1.5-1.3 2.4-3l1.8-2.9 4.4 3.4c5.3 4 8.3 5.1 9.9 3.6 1.3-1.4 1.5-11.5.3-14.9-.7-1.9-.5-2.2 1.8-2.2 3.7 0 9.5-3.5 12.2-7.2 2.8-4 1.8-5.3-4.3-6.3-3.3-.5-4.3-1-3.6-1.8 1.2-1.6 4-9 4.6-12 .4-2.2 0-2.5-2.9-2.9-1.9-.2-5.8.1-8.8.7l-5.4 1.1.2-2.8c.1-1.5-.3-2.9-.9-2.9-4.2-.4-9.5 1.8-13.8 5.9l-2.8 2.6-2.7-2.6c-2.9-2.6-5.3-4.1-9.6-5.7-2.1-.8-2.6-.6-3.1 1.2zm-88.9 49c.3.4-1 .7-3 .7s-3.7-.3-3.7-.8c0-.9 5.7-.8 6.7.1zm9.3-.1c0 .5-1.8.8-4 .8s-4-.3-4-.8c0-.4 1.8-.7 4-.7s4 .3 4 .7zm12 .1c0 .4-2.5.7-5.5.6-3-.1-5.2-.5-5-.8.5-.9 10.5-.7 10.5.2zm14 0c0 .4-2.9.7-6.5.6-3.5-.1-6.3-.5-6.1-.8.6-.9 12.6-.7 12.6.2zm10-.1c0 .5-2.1.8-4.6.8-2.5 0-4.3-.3-4.1-.8.3-.4 2.4-.7 4.6-.7 2.3 0 4.1.3 4.1.7zm6.7.2c.4.3-.7.6-2.5.4-1.8-.1-3.2-.5-3.2-.9 0-.9 4.7-.5 5.7.5zM115 102.1c-9.3 5-21.8 12.3-23 13.5-1.2 1.2 11.2 1.4 92.8 1.4 56.1 0 94.2-.4 94.2-.9 0-.9-9.7-6.8-20-12.2l-4.5-2.4-69-.1c-38 0-69.7.3-70.5.7zM91 120c-2 2-2 14.4-.1 16.3.9.9 23.2 1.2 94.4 1.2 84.2 0 93.3-.1 94.8-1.6 1.9-1.9 1.9-14.3 0-16.2-.9-.9-23.6-1.2-94.3-1.3-84.7 0-93.3.1-94.8 1.6zM90.8 140.7c-2 2.4-1.7 15.1.3 16.4 1.9 1.2 187 1.1 188.9-.1 2.1-1.3 2.1-15.7 0-17-.9-.6-39.6-1-94.6-1-87.4 0-93.2.1-94.6 1.7zM92.1 160.1c-2.3.9-2.8 2.8-2.5 10.3.1 4.1.6 6.3 1.7 7.1 1.2.9 25.3 1.2 94.3 1.2 106.7 0 96.4 1.1 95.9-10.2-.2-3.7-.8-7.2-1.5-7.9-1.2-1.2-184.5-1.7-187.9-.5zM90.7 182c-1.6 2.3-1.5 14.6.2 16.3.5.5 4.4 1 8.6 1 4.1 0 7.5.3 7.5.7 0 .4-3.2.6-7.1.5-9.6-.1-10.4.6-10.3 9.5 0 5.5.4 7.5 1.6 8.4 1.2.9 24.8 1.2 95.1 1.1 51.5 0 93.9-.3 94.3-.8.4-.4.8-4.1.8-8.3.1-5.8-.3-7.9-1.5-8.7-1-.7-5.6-1.2-11.7-1.1-5.6 0-10.2-.3-10.2-.6 0-.4 4.7-.7 10.5-.7 6.7 0 11-.4 11.7-1.1.7-.7 1.2-4.2 1.3-7.9.3-11.4 11-10.3-96.1-10.3-91.9 0-93.3 0-94.7 2zm19.3 18c0 .5-.4 1-1 1-.5 0-1-.5-1-1 0-.6.5-1 1-1 .6 0 1 .4 1 1zm3 0c0 .5-.4 1-1 1-.5 0-1-.5-1-1 0-.6.5-1 1-1 .6 0 1 .4 1 1zm90 0c0 .3-20 .6-44.5.6s-44.5-.3-44.5-.6c0-.4 20-.6 44.5-.6s44.5.2 44.5.6zm3 0c0 .5-.4 1-1 1-.5 0-1-.5-1-1 0-.6.5-1 1-1 .6 0 1 .4 1 1zm3 0c0 .5-.4 1-1 1-.5 0-1-.5-1-1 0-.6.5-1 1-1 .6 0 1 .4 1 1zm42-.1c0 .4-9.2.6-20.5.7-11.3 0-20.5-.3-20.5-.6 0-.4 9.2-.7 20.5-.7 11.3.1 20.5.3 20.5.6zm3 .1c0 .5-.4 1-1 1-.5 0-1-.5-1-1 0-.6.5-1 1-1 .6 0 1 .4 1 1zm3 0c0 .5-.4 1-1 1-.5 0-1-.5-1-1 0-.6.5-1 1-1 .6 0 1 .4 1 1zM92.6 221.8c-.3.5.7 1.5 2.2 2.3 1.5.8 2.9 1.6 3.2 1.9.7.7 3.8 2.4 12.4 7l7.1 3.7h68c51.8 0 68.8-.3 71.5-1.2 4.9-1.7 22.3-12 22.8-13.4.4-1.3-186.4-1.6-187.2-.3zM119 238.9c0 1 26.5 15.1 28.4 15.1 1.2 0 1.6.5 1.3 1.4-.6 1.5 1.3 2.8 14.8 10.1 3.9 2.1 10.1 5.5 13.8 7.7 3.8 2.1 8 3.8 9.5 3.8 3 0 38.3-19.1 37.9-20.5-.2-.6-14.5-.9-37.5-.9-20.5 0-37.2-.2-37.2-.5 0-.4 17-.6 37.8-.5 20.7 0 38.8-.4 40.2-.8 3.7-1.3 27-14.1 27-14.9 0-.3-30.6-.6-68-.6s-68 .2-68 .6z"/></svg>