<?xml version="1.0" encoding="UTF-8" standalone="no"?>
<!-- Created with Inkscape (http://www.inkscape.org/) -->

<svg
   xmlns:dc="http://purl.org/dc/elements/1.1/"
   xmlns:cc="http://creativecommons.org/ns#"
   xmlns:rdf="http://www.w3.org/1999/02/22-rdf-syntax-ns#"
   xmlns:svg="http://www.w3.org/2000/svg"
   xmlns="http://www.w3.org/2000/svg"
   xmlns:sodipodi="http://sodipodi.sourceforge.net/DTD/sodipodi-0.dtd"
   xmlns:inkscape="http://www.inkscape.org/namespaces/inkscape"
   version="1.1"
   id="svg2"
   xml:space="preserve"
   width="310.15466"
   height="299.92932"
   viewBox="0 0 310.15466 299.92932"
   sodipodi:docname="HackDFW_Logo.svg"
   inkscape:export-filename="/home/jwlarocque/Downloads/HackDFW_Logo_V1.ai.png"
   inkscape:export-xdpi="105.4111"
   inkscape:export-ydpi="105.4111"
   inkscape:version="0.92.2 (5c3e80d, 2017-08-06)"><metadata
     id="metadata8"><rdf:RDF><cc:Work
         rdf:about=""><dc:format>image/svg+xml</dc:format><dc:type
           rdf:resource="http://purl.org/dc/dcmitype/StillImage" /><dc:title></dc:title></cc:Work></rdf:RDF></metadata><defs
     id="defs6"><clipPath
       clipPathUnits="userSpaceOnUse"
       id="clipPath20"><path
         d="M 0,224.947 H 232.616 V 0 H 0 Z"
         id="path18"
         inkscape:connector-curvature="0" /></clipPath></defs><sodipodi:namedview
     pagecolor="#ffffff"
     bordercolor="#666666"
     borderopacity="1"
     objecttolerance="10"
     gridtolerance="10"
     guidetolerance="10"
     inkscape:pageopacity="0"
     inkscape:pageshadow="2"
     inkscape:window-width="1146"
     inkscape:window-height="652"
     id="namedview4"
     showgrid="false"
     inkscape:zoom="0.78685205"
     inkscape:cx="145.54568"
     inkscape:cy="149.96466"
     inkscape:window-x="0"
     inkscape:window-y="27"
     inkscape:window-maximized="0"
     inkscape:current-layer="text42" /><g
     id="g10"
     inkscape:groupmode="layer"
     inkscape:label="HackDFW_Logo_V1"
     transform="matrix(1.3333333,0,0,-1.3333333,0,299.92933)"><path
       d="m 99.421,101.739 h -6.543 v 80.718 h 6.543 z"
       style="fill:#000000;fill-opacity:1;fill-rule:nonzero;stroke:none"
       id="path12"
       inkscape:connector-curvature="0" /><g
       id="g14"><g
         id="g16"
         clip-path="url(#clipPath20)"><g
           id="g22"
           transform="translate(159.0629,141.2813)"><path
             d="m 0,0 c 0,-25.235 -19.84,-45.834 -44.775,-47.043 v 22.158 c 13.746,0 24.895,11.139 24.895,24.885 0,13.746 -11.149,24.895 -24.895,24.895 V 47.043 C -19.84,45.834 0,25.235 0,0"
             style="fill:#fcd900;fill-opacity:1;fill-rule:nonzero;stroke:none"
             id="path24"
             inkscape:connector-curvature="0" /></g><g
           id="g26"
           transform="translate(103.1001,177.586)"><path
             d="m 0,0 c 0,-3.779 -3.063,-6.842 -6.842,-6.842 -3.779,0 -6.842,3.063 -6.842,6.842 0,3.779 3.063,6.842 6.842,6.842 C -3.063,6.842 0,3.779 0,0"
             style="fill:#000000;fill-opacity:1;fill-rule:nonzero;stroke:none"
             id="path28"
             inkscape:connector-curvature="0" /></g><g
           id="g30"
           transform="translate(103.1001,105.0031)"><path
             d="m 0,0 c 0,-3.779 -3.063,-6.842 -6.842,-6.842 -3.779,0 -6.842,3.063 -6.842,6.842 0,3.779 3.063,6.842 6.842,6.842 C -3.063,6.842 0,3.779 0,0"
             style="fill:#000000;fill-opacity:1;fill-rule:nonzero;stroke:none"
             id="path32"
             inkscape:connector-curvature="0" /></g><path
           d="m 93.285,145.107 h 26.928 v -6.543 H 93.285 Z"
           style="fill:#000000;fill-opacity:1;fill-rule:nonzero;stroke:none"
           id="path34"
           inkscape:connector-curvature="0" /><g
           id="g36"
           transform="translate(124.9797,141.7852)"><path
             d="m 0,0 c 0,-3.779 -3.063,-6.842 -6.842,-6.842 -3.779,0 -6.842,3.063 -6.842,6.842 0,3.779 3.063,6.842 6.842,6.842 C -3.063,6.842 0,3.779 0,0"
             style="fill:#000000;fill-opacity:1;fill-rule:nonzero;stroke:none"
             id="path38"
             inkscape:connector-curvature="0" /></g></g></g><g
       aria-label="H A C K D F W"
       transform="matrix(1,0,0,-1,36.6045,45.1338)"
       style="font-variant:normal;font-weight:bold;font-stretch:normal;font-size:25.61400032px;font-family:'Brandon Grotesque Bold';-inkscape-font-specification:BrandonGrotesque-Bold;writing-mode:lr-tb;fill:#000000;fill-opacity:1;fill-rule:nonzero;stroke:none"
       id="text42"><path
         d="M 2.330874,-0.48666601 C 2.330874,-0.230526 2.5614,0 2.81754,0 h 2.3821021 c 0.281754,0 0.486666,-0.230526 0.486666,-0.48666601 V -7.5561301 h 8.3501639 v 7.06946409 C 14.036472,-0.230526 14.241384,0 14.523138,0 h 2.356488 c 0.25614,0 0.486666,-0.230526 0.486666,-0.48666601 V -17.443134 c 0,-0.25614 -0.230526,-0.486666 -0.486666,-0.486666 h -2.356488 c -0.281754,0 -0.486666,0.230526 -0.486666,0.486666 v 6.78771 H 5.6863081 v -6.78771 c 0,-0.25614 -0.204912,-0.486666 -0.486666,-0.486666 H 2.81754 c -0.25614,0 -0.486666,0.230526 -0.486666,0.486666 z"
         style="font-style:normal;font-variant:normal;font-weight:bold;font-stretch:normal;font-family:'Brandon Grotesque';-inkscape-font-specification:'Brandon Grotesque Bold'"
         id="path44" /><path
         d="m 25.793299,0 h 2.228418 c 0.409824,0 0.64035,-0.25614 0.742806,-0.51228001 L 30.019609,-3.278592 h 7.658586 l 1.255086,2.76631199 C 39.112579,-0.153684 39.291877,0 39.676087,0 h 2.228418 c 0.38421,0 0.589122,-0.332982 0.435438,-0.66596401 L 34.450831,-17.904186 c -0.07684,-0.153684 -0.179298,-0.281754 -0.435438,-0.281754 h -0.25614 c -0.230526,0 -0.358596,0.12807 -0.435438,0.281754 L 25.357861,-0.66596401 C 25.204177,-0.332982 25.409089,0 25.793299,0 Z m 5.481396,-6.1217461 2.510172,-5.6350799 h 0.07684 l 2.5614,5.6350799 z"
         style="font-style:normal;font-variant:normal;font-weight:bold;font-stretch:normal;font-family:'Brandon Grotesque';-inkscape-font-specification:'Brandon Grotesque Bold'"
         id="path46" /><path
         d="m 49.025197,-8.9392861 c 0,5.1228001 4.123854,9.1954261 9.246654,9.1954261 2.279646,0 4.48245,-0.79403401 6.224202,-2.484558 0.179298,-0.179298 0.230526,-0.51228 0.02561,-0.691578 l -1.588068,-1.6392961 c -0.153684,-0.153684 -0.435438,-0.179298 -0.64035,0 -1.075788,0.8708761 -2.382102,1.4599981 -3.918942,1.4599981 -3.278592,0 -5.737536,-2.7150841 -5.737536,-5.9168341 0,-3.2273639 2.43333,-5.9680619 5.711922,-5.9680619 1.434384,0 2.868768,0.563508 3.944556,1.511226 0.204912,0.204912 0.461052,0.204912 0.64035,0 l 1.562454,-1.613682 c 0.204912,-0.204912 0.204912,-0.51228 -0.02561,-0.717192 -1.741752,-1.562454 -3.611574,-2.382102 -6.198588,-2.382102 -5.1228,0 -9.246654,4.123854 -9.246654,9.2466539 z"
         style="font-style:normal;font-variant:normal;font-weight:bold;font-stretch:normal;font-family:'Brandon Grotesque';-inkscape-font-specification:'Brandon Grotesque Bold'"
         id="path48" /><path
         d="M 73.512179,-0.61473601 C 73.512179,-0.281754 73.768319,0 74.126915,0 h 2.254032 c 0.332982,0 0.614736,-0.281754 0.614736,-0.61473601 V -8.4270061 l 6.685254,8.2477081 C 83.732165,-0.102456 83.885849,0 84.141989,0 h 2.791926 c 0.51228,0 0.717192,-0.56350801 0.461052,-0.89649001 l -7.17192,-8.58069009 6.685254,-7.5305159 c 0.332982,-0.38421 0.07684,-0.922104 -0.409824,-0.922104 h -2.5614 c -0.230526,0 -0.38421,0.12807 -0.486666,0.25614 l -6.454728,7.274376 v -6.91578 c 0,-0.332982 -0.281754,-0.614736 -0.614736,-0.614736 h -2.254032 c -0.358596,0 -0.614736,0.281754 -0.614736,0.614736 z"
         style="font-style:normal;font-variant:normal;font-weight:bold;font-stretch:normal;font-family:'Brandon Grotesque';-inkscape-font-specification:'Brandon Grotesque Bold'"
         id="path50" /><path
         d="M 95.950045,-0.48666601 C 95.950045,-0.230526 96.154957,0 96.411097,0 h 6.070523 c 4.9435,0 8.99051,-4.0213981 8.99051,-8.9905141 0,-4.9178879 -4.04701,-8.9392859 -8.99051,-8.9392859 h -6.070523 c -0.25614,0 -0.461052,0.230526 -0.461052,0.486666 z M 99.254251,-3.124908 v -11.705598 h 2.919999 c 3.32982,0 5.76315,2.510172 5.76315,5.8399919 0,3.355434 -2.43333,5.8656061 -5.76315,5.8656061 z"
         style="font-style:normal;font-variant:normal;font-weight:bold;font-stretch:normal;font-family:'Brandon Grotesque';-inkscape-font-specification:'Brandon Grotesque Bold'"
         id="path52" /><path
         d="M 120.51387,-0.48666601 C 120.51387,-0.230526 120.71878,0 121.00054,0 h 2.35649 c 0.25614,0 0.48666,-0.230526 0.48666,-0.48666601 V -6.9670081 h 6.32666 c 0.25614,0 0.48667,-0.230526 0.48667,-0.486666 v -2.100348 c 0,-0.25614 -0.23053,-0.4866659 -0.48667,-0.4866659 h -6.32666 v -4.815432 h 7.58175 c 0.28175,0 0.48666,-0.230526 0.48666,-0.486666 v -2.100348 c 0,-0.25614 -0.20491,-0.486666 -0.48666,-0.486666 h -10.4249 c -0.28176,0 -0.48667,0.230526 -0.48667,0.486666 z"
         style="font-style:normal;font-variant:normal;font-weight:bold;font-stretch:normal;font-family:'Brandon Grotesque';-inkscape-font-specification:'Brandon Grotesque Bold'"
         id="path54" /><path
         d="m 143.87385,-0.102456 c 0.0512,0.204912 0.25614,0.358596 0.46105,0.358596 h 0.40982 c 0.25614,0 0.3586,-0.12807 0.43544,-0.281754 l 4.53368,-11.603142 h 0.12807 l 4.5849,11.603142 c 0.0512,0.153684 0.20492,0.281754 0.43544,0.281754 h 0.40983 c 0.20491,0 0.40982,-0.153684 0.46105,-0.358596 l 4.84104,-17.212608 c 0.10246,-0.358596 -0.10245,-0.614736 -0.46105,-0.614736 h -2.35649 c -0.20491,0 -0.40982,0.179298 -0.46105,0.358596 l -2.61263,10.2199859 h -0.10245 l -4.09824,-10.5529679 c -0.0512,-0.153684 -0.1793,-0.281754 -0.43544,-0.281754 h -0.46105 c -0.25614,0 -0.38421,0.12807 -0.43544,0.281754 l -4.07263,10.5529679 h -0.10245 l -2.66386,-10.2199859 c -0.0512,-0.179298 -0.25614,-0.358596 -0.46105,-0.358596 h -2.35649 c -0.35859,0 -0.56351,0.25614 -0.46105,0.614736 z"
         style="font-style:normal;font-variant:normal;font-weight:bold;font-stretch:normal;font-family:'Brandon Grotesque';-inkscape-font-specification:'Brandon Grotesque Bold'"
         id="path56" /></g></g></svg>