<?xml version="1.0" encoding="utf-8"?>
<!-- Generator: Adobe Illustrator 16.0.0, SVG Export Plug-In . SVG Version: 6.00 Build 0)  -->
<!DOCTYPE svg PUBLIC "-//W3C//DTD SVG 1.1//EN" "http://www.w3.org/Graphics/SVG/1.1/DTD/svg11.dtd">
<svg version="1.1" id="Layer_1" xmlns="http://www.w3.org/2000/svg" xmlns:xlink="http://www.w3.org/1999/xlink" x="0px" y="0px"
	 width="500px" height="500px" viewBox="0 0 500 500" enable-background="new 0 0 500 500" xml:space="preserve">
<rect display="none" fill="#333333" width="500" height="500"/>
<g>
	<defs>
		<rect id="SVGID_1_" width="500" height="500"/>
	</defs>
	<clipPath id="SVGID_2_">
		<use xlink:href="#SVGID_1_"  overflow="visible"/>
	</clipPath>
	<path clip-path="url(#SVGID_2_)" fill="#CCCCCC" d="M248.486,84.59c16.96,10.446,33.921,20.892,50.882,31.338
		c27.085,16.682,54.171,33.364,81.257,50.046l18.861,11.616c3.296,2.031,6.313-3.157,3.027-5.181
		c-16.96-10.446-33.922-20.892-50.882-31.338c-27.085-16.682-54.171-33.363-81.257-50.045l-18.861-11.617
		C248.217,77.379,245.2,82.567,248.486,84.59"/>
	<path clip-path="url(#SVGID_2_)" fill="#CCCCCC" d="M98.514,178.59c17.275-10.613,34.55-21.227,51.825-31.84
		c27.386-16.826,54.773-33.651,82.159-50.476c6.339-3.895,12.678-7.789,19.016-11.684c3.285-2.018,0.274-7.209-3.027-5.181
		c-17.276,10.614-34.55,21.227-51.826,31.84c-27.385,16.826-54.772,33.651-82.159,50.477c-6.339,3.894-12.677,7.789-19.015,11.683
		C92.202,175.427,95.212,180.619,98.514,178.59"/>
	
		<line clip-path="url(#SVGID_2_)" fill="none" stroke="#FFFFFF" stroke-width="6" stroke-miterlimit="10" x1="251" y1="272" x2="98" y2="178"/>
	
		<line clip-path="url(#SVGID_2_)" fill="none" stroke="#FFFFFF" stroke-width="6" stroke-miterlimit="10" x1="251" y1="418" x2="98" y2="324"/>
	
		<line clip-path="url(#SVGID_2_)" fill="none" stroke="#CCCCCC" stroke-width="6" stroke-miterlimit="10" x1="251" y1="84" x2="251" y2="232"/>
	<path clip-path="url(#SVGID_2_)" fill="none" stroke="#FFFFFF" stroke-width="6" stroke-miterlimit="10" d="M99,325V177V325z"/>
	
		<line clip-path="url(#SVGID_2_)" fill="none" stroke="#FFFFFF" stroke-width="6" stroke-miterlimit="10" x1="401" y1="177" x2="401" y2="227"/>
	<path clip-path="url(#SVGID_2_)" fill="#FFFFFF" d="M146,258.333v50.001c0,3.86,6,3.867,6,0v-50.001
		C152,254.473,146,254.466,146,258.333"/>
	<path clip-path="url(#SVGID_2_)" fill="#FFFFFF" d="M198,289.281v50.001c0,3.86,6,3.867,6,0v-50.001
		C204,285.42,198,285.414,198,289.281"/>
	<path clip-path="url(#SVGID_2_)" fill="#FFFFFF" d="M147.485,259.924c17.333,10.649,34.667,21.298,52,31.947
		c3.299,2.026,6.316-3.161,3.028-5.181c-17.333-10.649-34.667-21.299-52-31.947C147.214,252.716,144.198,257.902,147.485,259.924"/>
	<path clip-path="url(#SVGID_2_)" fill="#FFFFFF" d="M201.759,338.986c-17.334-10.649-34.667-21.298-52.001-31.947
		c-1.649-1.014-3.158,1.58-1.514,2.59c17.333,10.649,34.667,21.299,52,31.948C201.894,342.59,203.403,339.997,201.759,338.986"/>
	
		<line clip-path="url(#SVGID_2_)" fill="none" stroke="#FFFFFF" stroke-width="6" stroke-miterlimit="10" x1="351" y1="210" x2="351" y2="358"/>
	<path clip-path="url(#SVGID_2_)" fill="#FFFFFF" d="M399.486,223.41c-21.438,13.17-42.875,26.341-64.313,39.512
		c-17.18,10.556-34.36,21.112-51.542,31.666c-12.382,7.607-24.764,15.215-37.145,22.822c-3.285,2.018-0.274,7.209,3.027,5.181
		c17.748-10.903,35.494-21.806,53.24-32.709c24.511-15.06,49.021-30.118,73.531-45.176c8.743-5.372,17.486-10.744,26.229-16.115
		C405.798,226.573,402.788,221.381,399.486,223.41"/>
	<path clip-path="url(#SVGID_2_)" fill="#FFFFFF" d="M252.514,373.591c16.932-10.316,33.862-20.632,50.793-30.947
		c27.17-16.554,54.339-33.107,81.509-49.66c6.233-3.798,12.466-7.596,18.698-11.393c3.293-2.007,0.281-7.197-3.027-5.182
		c-16.932,10.316-33.862,20.632-50.793,30.947c-27.17,16.554-54.339,33.107-81.509,49.66c-6.232,3.798-12.466,7.595-18.698,11.393
		C246.194,370.416,249.205,375.606,252.514,373.591"/>
	<path clip-path="url(#SVGID_2_)" fill="#FFFFFF" d="M351.608,359.999l50.851-31.242c3.285-2.019,0.274-7.21-3.028-5.181
		c-16.95,10.414-33.9,20.827-50.851,31.241C345.295,356.836,348.306,362.027,351.608,359.999"/>
	<polyline clip-path="url(#SVGID_2_)" fill="none" stroke="#FFFFFF" stroke-width="6" stroke-miterlimit="10" points="
		400.945,180.166 383.6,190.823 367.088,200.967 350.094,211.408 	"/>
	<path clip-path="url(#SVGID_2_)" fill="#FFFFFF" d="M405,325v-45c0-3.86-6-3.867-6,0v45C399,328.86,405,328.867,405,325"/>
	<path clip-path="url(#SVGID_2_)" fill="#CCCCCC" d="M345,315v44c0,3.86,6,3.867,6,0v-44C351,311.14,345,311.133,345,315"/>
	<line clip-path="url(#SVGID_2_)" fill="#FFFFFF" x1="357" y1="305" x2="402.5" y2="278.5"/>
	<path clip-path="url(#SVGID_2_)" fill="#FFFFFF" d="M358.514,307.591c15.167-8.834,30.334-17.667,45.5-26.5
		c3.336-1.942,0.318-7.13-3.027-5.182c-15.167,8.834-30.334,17.667-45.5,26.5C352.15,304.352,355.168,309.539,358.514,307.591"/>
	<line clip-path="url(#SVGID_2_)" fill="#FFFFFF" x1="305" y1="281" x2="346.5" y2="256.5"/>
	<path clip-path="url(#SVGID_2_)" fill="#FFFFFF" d="M306.514,283.591c13.834-8.167,27.667-16.334,41.5-24.5
		c3.323-1.962,0.308-7.15-3.027-5.182c-13.834,8.167-27.667,16.334-41.5,24.5C300.163,280.371,303.179,285.56,306.514,283.591"/>
	<polyline clip-path="url(#SVGID_2_)" fill="#FFFFFF" points="250,418 266.994,407.56 283.506,397.415 300.852,386.758 	"/>
	<path clip-path="url(#SVGID_2_)" fill="#FFFFFF" d="M251.514,420.591c16.951-10.414,33.901-20.828,50.852-31.242
		c3.285-2.019,0.274-7.21-3.028-5.181c-16.95,10.414-33.9,20.827-50.85,31.241C245.202,417.428,248.212,422.619,251.514,420.591"/>
	<line clip-path="url(#SVGID_2_)" fill="#FFFFFF" x1="301" y1="240" x2="301" y2="388"/>
	<polyline clip-path="url(#SVGID_2_)" fill="#FFFFFF" points="300.852,242.758 283.506,253.415 266.994,263.56 250,274 	"/>
	<path clip-path="url(#SVGID_2_)" fill="#FFFFFF" d="M299.337,240.167c-16.95,10.414-33.9,20.828-50.851,31.242
		c-3.285,2.019-0.274,7.21,3.028,5.182c16.951-10.414,33.901-20.828,50.852-31.242C305.65,243.331,302.64,238.139,299.337,240.167"
		/>
	<polyline clip-path="url(#SVGID_2_)" fill="#FFFFFF" points="203.404,242.758 201,387.28 250,417 250,270 	"/>
	<polyline clip-path="url(#SVGID_2_)" fill="#FFFFFF" points="99,177 99,325 149,352 150.085,210 	"/>
	<polygon clip-path="url(#SVGID_2_)" fill="#FFFFFF" points="149,308.334 143.574,352 208.333,393.667 208,342 	"/>
	<polygon clip-path="url(#SVGID_2_)" fill="#FFFFFF" points="143.574,206 144,258 218,296 208.333,245.787 	"/>
	<polygon clip-path="url(#SVGID_2_)" fill="#FFFFFF" points="250,274 250,417 300.852,385.758 300.852,246.333 	"/>
	<polyline clip-path="url(#SVGID_2_)" fill="#FFFFFF" points="300.344,288.455 351,258.379 350,314 298.947,341.787 	"/>
	<polygon clip-path="url(#SVGID_2_)" fill="#FFFFFF" points="353.667,211.408 354,251 400.945,222.333 400.945,183.666 	"/>
	<polygon clip-path="url(#SVGID_2_)" fill="#FFFFFF" points="353.667,311.408 354,351 400.945,322.333 400.945,283.667 	"/>
	<line clip-path="url(#SVGID_2_)" fill="#FFFFFF" x1="250.011" y1="269.375" x2="250.489" y2="418.125"/>
	<path clip-path="url(#SVGID_2_)" fill="#FFFFFF" d="M247.011,269.375c0.14,43.504,0.28,87.007,0.42,130.51l0.059,18.24
		c0.012,3.859,6.012,3.867,6,0c-0.14-43.504-0.279-87.007-0.42-130.51l-0.059-18.24
		C252.999,265.516,246.999,265.508,247.011,269.375"/>
	<line clip-path="url(#SVGID_2_)" fill="#FFFFFF" x1="97.011" y1="176.375" x2="97.49" y2="325.125"/>
	<path clip-path="url(#SVGID_2_)" fill="#FFFFFF" d="M94.011,176.375c0.14,43.503,0.28,87.006,0.42,130.509l0.059,18.24
		c0.012,3.859,6.012,3.867,6,0c-0.14-43.504-0.28-87.006-0.42-130.511c-0.02-6.079-0.039-12.159-0.059-18.239
		C99.999,172.516,93.999,172.507,94.011,176.375"/>
	<line clip-path="url(#SVGID_2_)" fill="#FFFFFF" x1="97.5" y1="325.5" x2="249.5" y2="418.5"/>
	<path clip-path="url(#SVGID_2_)" fill="#FFFFFF" d="M95.986,328.091c17.103,10.464,34.205,20.928,51.309,31.393
		c27.278,16.689,54.555,33.38,81.834,50.069c6.286,3.846,12.571,7.691,18.857,11.538c3.302,2.021,6.32-3.167,3.027-5.182
		c-17.103-10.465-34.206-20.928-51.309-31.393c-27.279-16.689-54.556-33.38-81.834-50.069c-6.286-3.846-12.572-7.691-18.858-11.538
		C95.712,320.889,92.693,326.076,95.986,328.091"/>
	<line clip-path="url(#SVGID_2_)" fill="#FFFFFF" x1="97.5" y1="175.5" x2="249.5" y2="268.5"/>
	<path clip-path="url(#SVGID_2_)" fill="#FFFFFF" d="M95.986,178.09c17.103,10.464,34.205,20.929,51.309,31.393
		c27.278,16.69,54.555,33.38,81.834,50.069c6.286,3.846,12.571,7.691,18.857,11.537c3.302,2.021,6.32-3.167,3.027-5.181
		c-17.103-10.464-34.206-20.928-51.309-31.393c-27.279-16.69-54.556-33.38-81.834-50.07c-6.286-3.845-12.572-7.691-18.858-11.537
		C95.712,170.888,92.693,176.076,95.986,178.09"/>
	<line clip-path="url(#SVGID_2_)" fill="#FFFFFF" x1="255" y1="268" x2="301.5" y2="239.5"/>
	<path clip-path="url(#SVGID_2_)" fill="#FFFFFF" d="M256.514,270.591c15.5-9.5,31-19,46.5-28.5
		c3.287-2.015,0.276-7.207-3.027-5.181c-15.5,9.5-31,19-46.5,28.5C250.199,267.424,253.21,272.615,256.514,270.591"/>
	<line clip-path="url(#SVGID_2_)" fill="#FFFFFF" x1="349" y1="209" x2="401.5" y2="176.5"/>
	<path clip-path="url(#SVGID_2_)" fill="#FFFFFF" d="M350.514,211.59c17.5-10.833,35-21.667,52.5-32.5
		c3.277-2.028,0.268-7.221-3.027-5.181c-17.5,10.834-35,21.667-52.5,32.5C344.209,208.438,347.219,213.63,350.514,211.59"/>
	<line clip-path="url(#SVGID_2_)" fill="#FFFFFF" x1="347" y1="210" x2="347" y2="256"/>
	<path clip-path="url(#SVGID_2_)" fill="#FFFFFF" d="M344,210v46c0,3.86,6,3.867,6,0v-46C350,206.139,344,206.133,344,210"/>
	<polygon clip-path="url(#SVGID_2_)" fill="#FFFFFF" points="347,362 345,363 344.875,359.625 346,361 	"/>
	<path clip-path="url(#SVGID_2_)" fill="#CCCCCC" d="M358.514,307.591c15.167-8.834,30.334-17.667,45.5-26.5
		c3.336-1.942,0.318-7.13-3.027-5.182c-15.167,8.834-30.334,17.667-45.5,26.5C352.15,304.352,355.168,309.539,358.514,307.591"/>
	<path clip-path="url(#SVGID_2_)" fill="#CCCCCC" d="M306.514,283.591c13.834-8.167,27.667-16.334,41.5-24.5
		c3.323-1.962,0.308-7.15-3.027-5.182c-13.834,8.167-27.667,16.334-41.5,24.5C300.163,280.371,303.179,285.56,306.514,283.591"/>
	<path clip-path="url(#SVGID_2_)" fill="#FFFFFF" d="M251.514,420.591c16.951-10.414,33.901-20.828,50.852-31.242
		c3.285-2.019,0.274-7.21-3.028-5.181c-16.95,10.414-33.9,20.827-50.85,31.241C245.202,417.428,248.212,422.619,251.514,420.591"/>
	
		<line clip-path="url(#SVGID_2_)" fill="none" stroke="#FFFFFF" stroke-width="6" stroke-miterlimit="10" x1="301" y1="240" x2="301" y2="388"/>
	<path clip-path="url(#SVGID_2_)" fill="#FFFFFF" d="M299.337,240.167c-16.95,10.414-33.9,20.828-50.851,31.242
		c-3.285,2.019-0.274,7.21,3.028,5.182c16.951-10.414,33.901-20.828,50.852-31.242C305.65,243.331,302.64,238.139,299.337,240.167"
		/>
	<polyline clip-path="url(#SVGID_2_)" fill="#FFFFFF" points="203.404,242.758 201,387.28 250,417 250,270 	"/>
	<polyline clip-path="url(#SVGID_2_)" fill="#FFFFFF" points="99,177 99,325 149,352 150.085,210 	"/>
	<polygon clip-path="url(#SVGID_2_)" fill="#FFFFFF" points="149,308.334 143.574,352 208.333,393.667 208,342 	"/>
	<polygon clip-path="url(#SVGID_2_)" fill="#FFFFFF" points="143.574,206 144,258 218,296 208.333,245.787 	"/>
	<polygon clip-path="url(#SVGID_2_)" fill="none" stroke="#FFFFFF" stroke-width="2" stroke-miterlimit="10" points="250,274 
		250,417 300.852,385.758 300.852,246.333 	"/>
	<polyline clip-path="url(#SVGID_2_)" fill="none" stroke="#FFFFFF" stroke-width="2" stroke-miterlimit="10" points="
		300.344,288.455 351,258.379 350,314 298.947,341.787 	"/>
	<polygon clip-path="url(#SVGID_2_)" fill="none" stroke="#FFFFFF" stroke-width="2" stroke-miterlimit="10" points="
		353.667,211.408 354,251 400.945,222.333 400.945,183.666 	"/>
	<polygon clip-path="url(#SVGID_2_)" fill="none" stroke="#FFFFFF" stroke-width="2" stroke-miterlimit="10" points="
		353.667,311.408 354,351 400.945,322.333 400.945,283.667 	"/>
	<path clip-path="url(#SVGID_2_)" fill="#F2F2F2" d="M247.011,269.375c0.14,43.504,0.28,87.007,0.42,130.51l0.059,18.24
		c0.012,3.859,6.012,3.867,6,0c-0.14-43.504-0.279-87.007-0.42-130.51l-0.059-18.24
		C252.999,265.516,246.999,265.508,247.011,269.375"/>
	<path clip-path="url(#SVGID_2_)" fill="#F2F2F2" d="M94.011,176.375c0.14,43.503,0.28,87.006,0.42,130.509l0.059,18.24
		c0.012,3.859,6.012,3.867,6,0c-0.14-43.504-0.28-87.006-0.42-130.511c-0.02-6.079-0.039-12.159-0.059-18.239
		C99.999,172.516,93.999,172.507,94.011,176.375"/>
	<path clip-path="url(#SVGID_2_)" fill="#F2F2F2" d="M95.986,328.091c17.103,10.464,34.205,20.928,51.309,31.393
		c27.278,16.689,54.555,33.38,81.834,50.069c6.286,3.846,12.571,7.691,18.857,11.538c3.302,2.021,6.32-3.167,3.027-5.182
		c-17.103-10.465-34.206-20.928-51.309-31.393c-27.279-16.689-54.556-33.38-81.834-50.069c-6.286-3.846-12.572-7.691-18.858-11.538
		C95.712,320.889,92.693,326.076,95.986,328.091"/>
	<path clip-path="url(#SVGID_2_)" fill="#F2F2F2" d="M95.986,178.09c17.103,10.464,34.205,20.929,51.309,31.393
		c27.278,16.69,54.555,33.38,81.834,50.069c6.286,3.846,12.571,7.691,18.857,11.537c3.302,2.021,6.32-3.167,3.027-5.181
		c-17.103-10.464-34.206-20.928-51.309-31.393c-27.279-16.69-54.556-33.38-81.834-50.07c-6.286-3.845-12.572-7.691-18.858-11.537
		C95.712,170.888,92.693,176.076,95.986,178.09"/>
	<path clip-path="url(#SVGID_2_)" fill="#CCCCCC" d="M256.514,270.591c15.5-9.5,31-19,46.5-28.5
		c3.287-2.015,0.276-7.207-3.027-5.181c-15.5,9.5-31,19-46.5,28.5C250.199,267.424,253.21,272.615,256.514,270.591"/>
	<path clip-path="url(#SVGID_2_)" fill="#CCCCCC" d="M350.514,211.59c17.5-10.833,35-21.667,52.5-32.5
		c3.277-2.028,0.268-7.221-3.027-5.181c-17.5,10.834-35,21.667-52.5,32.5C344.209,208.438,347.219,213.63,350.514,211.59"/>
	<path clip-path="url(#SVGID_2_)" fill="#CCCCCC" d="M344,210v46c0,3.86,6,3.867,6,0v-46C350,206.139,344,206.133,344,210"/>
	<polygon clip-path="url(#SVGID_2_)" fill="#35291E" points="347,362 345,363 344.875,359.625 346,361 	"/>
	<polyline clip-path="url(#SVGID_2_)" fill="none" stroke="#FFFFFF" stroke-miterlimit="10" points="154.775,220.523 
		187.93,240.605 189.825,246.638 	"/>
	<polyline clip-path="url(#SVGID_2_)" fill="none" stroke="#FFFFFF" stroke-miterlimit="10" points="154.444,239.521 
		171.266,249.815 171.145,256.814 193.902,270.881 	"/>
	<polyline clip-path="url(#SVGID_2_)" fill="none" stroke="#FFFFFF" stroke-miterlimit="10" points="309.528,338 309.528,353 
		315.265,358.735 315.265,381.408 	"/>
	<polyline clip-path="url(#SVGID_2_)" fill="none" stroke="#FFFFFF" stroke-miterlimit="10" points="311.5,329.5 330,348 330,362.5 
			"/>
	<polyline clip-path="url(#SVGID_2_)" fill="none" stroke="#FFFFFF" stroke-miterlimit="10" points="334,324.102 334,335.5 
		341.25,342.75 341.25,360.5 336.875,364.875 336.875,368.123 	"/>
	
		<line clip-path="url(#SVGID_2_)" fill="none" stroke="#FFFFFF" stroke-miterlimit="10" x1="321.629" y1="339.629" x2="321.629" y2="357.5"/>
	<circle clip-path="url(#SVGID_2_)" fill="none" stroke="#F2F2F2" stroke-miterlimit="10" cx="321.5" cy="359" r="1.5"/>
	<path clip-path="url(#SVGID_2_)" fill="#FFFFFF" d="M328.546,363.571c-0.015,0.828,0.646,1.512,1.474,1.526
		c0.828,0.014,1.512-0.646,1.525-1.474c0.015-0.829-0.646-1.512-1.474-1.526S328.561,362.743,328.546,363.571"/>
	<circle clip-path="url(#SVGID_2_)" fill="none" stroke="#F2F2F2" stroke-miterlimit="10" cx="330.045" cy="363.598" r="1.5"/>
	<polyline clip-path="url(#SVGID_2_)" fill="none" stroke="#FFFFFF" stroke-miterlimit="10" points="310,353 306.5,356.5 
		306.5,386.758 	"/>
	<polyline clip-path="url(#SVGID_2_)" fill="none" stroke="#FFFFFF" stroke-miterlimit="10" points="357.5,255.5 357.5,273.5 
		355.5,275.5 355.5,302.5 	"/>
	<polyline clip-path="url(#SVGID_2_)" fill="none" stroke="#FFFFFF" stroke-miterlimit="10" points="358,260 366,268 366,281 
		361,286 	"/>
	<circle clip-path="url(#SVGID_2_)" fill="none" stroke="#F2F2F2" stroke-miterlimit="10" cx="359.355" cy="287.159" r="1.5"/>
	<polyline clip-path="url(#SVGID_2_)" fill="none" stroke="#FFFFFF" stroke-miterlimit="10" points="378,242 378,251 
		375.211,253.789 371,258 371,293.521 	"/>
	
		<line clip-path="url(#SVGID_2_)" fill="none" stroke="#FFFFFF" stroke-miterlimit="10" x1="375.5" y1="253.5" x2="375.5" y2="269.5"/>
	<path clip-path="url(#SVGID_2_)" fill="#FFFFFF" d="M374,270.571c-0.015,0.828,0.646,1.511,1.474,1.525
		c0.828,0.015,1.512-0.646,1.526-1.474s-0.646-1.512-1.474-1.525C374.698,269.083,374.015,269.742,374,270.571"/>
	<circle clip-path="url(#SVGID_2_)" fill="none" stroke="#F2F2F2" stroke-miterlimit="10" cx="375.5" cy="270.597" r="1.5"/>
	<polyline clip-path="url(#SVGID_2_)" fill="none" stroke="#F2F2F2" stroke-miterlimit="10" points="395.5,249.5 395.5,257.5 
		385,268 385,281.5 	"/>
	
		<line clip-path="url(#SVGID_2_)" fill="none" stroke="#F2F2F2" stroke-miterlimit="10" x1="395.5" y1="232.927" x2="395.5" y2="249.5"/>
	<polyline clip-path="url(#SVGID_2_)" fill="none" stroke="#F2F2F2" stroke-miterlimit="10" points="395.5,257.5 401.5,263.5 
		401.5,276 	"/>
	<circle clip-path="url(#SVGID_2_)" fill="none" stroke="#F2F2F2" stroke-miterlimit="10" cx="385" cy="283.159" r="1.5"/>
	<polyline clip-path="url(#SVGID_2_)" fill="none" stroke="#F2F2F2" stroke-miterlimit="10" points="389.083,263.917 
		394.583,269.417 394.583,280 	"/>
	<polyline clip-path="url(#SVGID_2_)" fill="#681F1F" points="251.5,253.5 395.5,162.5 395.5,151.5 252,242 252,254 	"/>
	<polygon clip-path="url(#SVGID_2_)" fill="#912929" points="249,61 102,151 252,242 396,152 	"/>
	<polygon clip-path="url(#SVGID_2_)" fill="#7F2828" points="102,151 102,163 252,254 252,242 	"/>
	<polyline clip-path="url(#SVGID_2_)" fill="#777777" points="111.5,160.5 108.5,159.5 108.5,168.5 109.5,169.5 109.5,174.5 
		110.5,175.5 110.5,170.5 111.5,170.5 111.5,160 	"/>
	<polyline clip-path="url(#SVGID_2_)" fill="none" stroke="#6B6B6B" stroke-miterlimit="10" points="111.5,160.5 108.5,159.5 
		108.5,168.5 109.5,169.5 109.5,174.5 110.5,175.5 110.5,170.5 111.5,170.5 111.5,160 	"/>
	<polyline clip-path="url(#SVGID_2_)" fill="#777777" points="123.5,168.5 120.5,167.5 120.5,176.5 121.5,177.5 121.5,182.5 
		122.5,183.5 122.5,178.5 123.5,178.5 123.5,168 	"/>
	<polyline clip-path="url(#SVGID_2_)" fill="none" stroke="#6B6B6B" stroke-miterlimit="10" points="123.5,168.5 120.5,167.5 
		120.5,176.5 121.5,177.5 121.5,182.5 122.5,183.5 122.5,178.5 123.5,178.5 123.5,168 	"/>
	<polyline clip-path="url(#SVGID_2_)" fill="#777777" points="137.5,176.5 134.5,175.5 134.5,184.5 135.5,185.5 135.5,190.5 
		136.5,191.5 136.5,186.5 137.5,186.5 137.5,176 	"/>
	<polyline clip-path="url(#SVGID_2_)" fill="none" stroke="#6B6B6B" stroke-miterlimit="10" points="137.5,176.5 134.5,175.5 
		134.5,184.5 135.5,185.5 135.5,190.5 136.5,191.5 136.5,186.5 137.5,186.5 137.5,176 	"/>
	<polyline clip-path="url(#SVGID_2_)" fill="#777777" points="190.5,208.5 187.5,207.5 187.5,216.5 188.5,217.5 188.5,222.5 
		189.5,223.5 189.5,218.5 190.5,218.5 190.5,208 	"/>
	<polyline clip-path="url(#SVGID_2_)" fill="none" stroke="#6B6B6B" stroke-miterlimit="10" points="190.5,208.5 187.5,207.5 
		187.5,216.5 188.5,217.5 188.5,222.5 189.5,223.5 189.5,218.5 190.5,218.5 190.5,208 	"/>
	<polyline clip-path="url(#SVGID_2_)" fill="#777777" points="177.5,200.5 174.5,199.5 174.5,208.5 175.5,209.5 175.5,214.5 
		176.5,215.5 176.5,210.5 177.5,210.5 177.5,200 	"/>
	<polyline clip-path="url(#SVGID_2_)" fill="none" stroke="#6B6B6B" stroke-miterlimit="10" points="177.5,200.5 174.5,199.5 
		174.5,208.5 175.5,209.5 175.5,214.5 176.5,215.5 176.5,210.5 177.5,210.5 177.5,200 	"/>
	<polyline clip-path="url(#SVGID_2_)" fill="#777777" points="164.5,192.5 161.5,191.5 161.5,200.5 162.5,201.5 162.5,206.5 
		163.5,207.5 163.5,202.5 164.5,202.5 164.5,192 	"/>
	<polyline clip-path="url(#SVGID_2_)" fill="none" stroke="#6B6B6B" stroke-miterlimit="10" points="164.5,192.5 161.5,191.5 
		161.5,200.5 162.5,201.5 162.5,206.5 163.5,207.5 163.5,202.5 164.5,202.5 164.5,192 	"/>
	<polyline clip-path="url(#SVGID_2_)" fill="#777777" points="150.5,184.5 147.5,183.5 147.5,192.5 148.5,193.5 148.5,198.5 
		149.5,199.5 149.5,194.5 150.5,194.5 150.5,184 	"/>
	<polyline clip-path="url(#SVGID_2_)" fill="none" stroke="#6B6B6B" stroke-miterlimit="10" points="150.5,184.5 147.5,183.5 
		147.5,192.5 148.5,193.5 148.5,198.5 149.5,199.5 149.5,194.5 150.5,194.5 150.5,184 	"/>
	<polyline clip-path="url(#SVGID_2_)" fill="#777777" points="203.5,215.5 200.5,214.5 200.5,223.5 201.5,224.5 201.5,229.5 
		202.5,230.5 202.5,225.5 203.5,225.5 203.5,215 	"/>
	<polyline clip-path="url(#SVGID_2_)" fill="none" stroke="#6B6B6B" stroke-miterlimit="10" points="203.5,215.5 200.5,214.5 
		200.5,223.5 201.5,224.5 201.5,229.5 202.5,230.5 202.5,225.5 203.5,225.5 203.5,215 	"/>
	<polyline clip-path="url(#SVGID_2_)" fill="#777777" points="217.5,223.5 214.5,222.5 214.5,231.5 215.5,232.5 215.5,237.5 
		216.5,238.5 216.5,233.5 217.5,233.5 217.5,223 	"/>
	<polyline clip-path="url(#SVGID_2_)" fill="none" stroke="#6B6B6B" stroke-miterlimit="10" points="217.5,223.5 214.5,222.5 
		214.5,231.5 215.5,232.5 215.5,237.5 216.5,238.5 216.5,233.5 217.5,233.5 217.5,223 	"/>
	<polyline clip-path="url(#SVGID_2_)" fill="#777777" points="230.5,232.5 227.5,231.5 227.5,240.5 228.5,241.5 228.5,246.5 
		229.5,247.5 229.5,242.5 230.5,242.5 230.5,232 	"/>
	<polyline clip-path="url(#SVGID_2_)" fill="none" stroke="#6B6B6B" stroke-miterlimit="10" points="230.5,232.5 227.5,231.5 
		227.5,240.5 228.5,241.5 228.5,246.5 229.5,247.5 229.5,242.5 230.5,242.5 230.5,232 	"/>
	<polyline clip-path="url(#SVGID_2_)" fill="#777777" points="244.5,241.5 241.5,240.5 241.5,249.5 242.5,250.5 242.5,255.5 
		243.5,256.5 243.5,251.5 244.5,251.5 244.5,241 	"/>
	<polyline clip-path="url(#SVGID_2_)" fill="none" stroke="#6B6B6B" stroke-miterlimit="10" points="244.5,241.5 241.5,240.5 
		241.5,249.5 242.5,250.5 242.5,255.5 243.5,256.5 243.5,251.5 244.5,251.5 244.5,241 	"/>
	<polyline clip-path="url(#SVGID_2_)" fill="#777777" points="261.5,240.5 264.5,239.5 264.5,248.5 263.5,249.5 263.5,254.5 
		262.5,255.5 262.5,250.5 261.5,250.5 261.5,240 	"/>
	<polyline clip-path="url(#SVGID_2_)" fill="none" stroke="#6B6B6B" stroke-miterlimit="10" points="261.5,240.5 264.5,239.5 
		264.5,248.5 263.5,249.5 263.5,254.5 262.5,255.5 262.5,250.5 261.5,250.5 261.5,240 	"/>
	<polyline clip-path="url(#SVGID_2_)" fill="#777777" points="275.5,231.5 278.5,230.5 278.5,239.5 277.5,240.5 277.5,245.5 
		276.5,246.5 276.5,241.5 275.5,241.5 275.5,231 	"/>
	<polyline clip-path="url(#SVGID_2_)" fill="none" stroke="#6B6B6B" stroke-miterlimit="10" points="275.5,231.5 278.5,230.5 
		278.5,239.5 277.5,240.5 277.5,245.5 276.5,246.5 276.5,241.5 275.5,241.5 275.5,231 	"/>
	<polyline clip-path="url(#SVGID_2_)" fill="#777777" points="289,222 292,221 292,230 291,231 291,236 290,237 290,232 289,232 
		289,221.5 	"/>
	<polyline clip-path="url(#SVGID_2_)" fill="none" stroke="#6B6B6B" stroke-miterlimit="10" points="289,222 292,221 292,230 
		291,231 291,236 290,237 290,232 289,232 289,221.5 	"/>
	<polyline clip-path="url(#SVGID_2_)" fill="#777777" points="301.5,214.5 304.5,213.5 304.5,222.5 303.5,223.5 303.5,228.5 
		302.5,229.5 302.5,224.5 301.5,224.5 301.5,214 	"/>
	<polyline clip-path="url(#SVGID_2_)" fill="none" stroke="#6B6B6B" stroke-miterlimit="10" points="301.5,214.5 304.5,213.5 
		304.5,222.5 303.5,223.5 303.5,228.5 302.5,229.5 302.5,224.5 301.5,224.5 301.5,214 	"/>
	<polyline clip-path="url(#SVGID_2_)" fill="#777777" points="313.5,207.5 316.5,206.5 316.5,215.5 315.5,216.5 315.5,221.5 
		314.5,222.5 314.5,217.5 313.5,217.5 313.5,207 	"/>
	<polyline clip-path="url(#SVGID_2_)" fill="none" stroke="#6B6B6B" stroke-miterlimit="10" points="313.5,207.5 316.5,206.5 
		316.5,215.5 315.5,216.5 315.5,221.5 314.5,222.5 314.5,217.5 313.5,217.5 313.5,207 	"/>
	<polyline clip-path="url(#SVGID_2_)" fill="#777777" points="326.5,199.5 329.5,198.5 329.5,207.5 328.5,208.5 328.5,213.5 
		327.5,214.5 327.5,209.5 326.5,209.5 326.5,199 	"/>
	<polyline clip-path="url(#SVGID_2_)" fill="none" stroke="#6B6B6B" stroke-miterlimit="10" points="326.5,199.5 329.5,198.5 
		329.5,207.5 328.5,208.5 328.5,213.5 327.5,214.5 327.5,209.5 326.5,209.5 326.5,199 	"/>
	<polyline clip-path="url(#SVGID_2_)" fill="#777777" points="339.5,191.5 342.5,190.5 342.5,199.5 341.5,200.5 341.5,205.5 
		340.5,206.5 340.5,201.5 339.5,201.5 339.5,191 	"/>
	<polyline clip-path="url(#SVGID_2_)" fill="none" stroke="#6B6B6B" stroke-miterlimit="10" points="339.5,191.5 342.5,190.5 
		342.5,199.5 341.5,200.5 341.5,205.5 340.5,206.5 340.5,201.5 339.5,201.5 339.5,191 	"/>
	<polyline clip-path="url(#SVGID_2_)" fill="#777777" points="352.5,182.5 355.5,181.5 355.5,190.5 354.5,191.5 354.5,196.5 
		353.5,197.5 353.5,192.5 352.5,192.5 352.5,182 	"/>
	<polyline clip-path="url(#SVGID_2_)" fill="none" stroke="#6B6B6B" stroke-miterlimit="10" points="352.5,182.5 355.5,181.5 
		355.5,190.5 354.5,191.5 354.5,196.5 353.5,197.5 353.5,192.5 352.5,192.5 352.5,182 	"/>
	<polyline clip-path="url(#SVGID_2_)" fill="#777777" points="364.5,174.5 367.5,173.5 367.5,182.5 366.5,183.5 366.5,188.5 
		365.5,189.5 365.5,184.5 364.5,184.5 364.5,174 	"/>
	<polyline clip-path="url(#SVGID_2_)" fill="none" stroke="#6B6B6B" stroke-miterlimit="10" points="364.5,174.5 367.5,173.5 
		367.5,182.5 366.5,183.5 366.5,188.5 365.5,189.5 365.5,184.5 364.5,184.5 364.5,174 	"/>
	<polyline clip-path="url(#SVGID_2_)" fill="#777777" points="376.5,167.5 379.5,166.5 379.5,175.5 378.5,176.5 378.5,181.5 
		377.5,182.5 377.5,177.5 376.5,177.5 376.5,167 	"/>
	<polyline clip-path="url(#SVGID_2_)" fill="none" stroke="#6B6B6B" stroke-miterlimit="10" points="376.5,167.5 379.5,166.5 
		379.5,175.5 378.5,176.5 378.5,181.5 377.5,182.5 377.5,177.5 376.5,177.5 376.5,167 	"/>
	<polyline clip-path="url(#SVGID_2_)" fill="#777777" points="388.5,160.5 391.5,159.5 391.5,168.5 390.5,169.5 390.5,174.5 
		389.5,175.5 389.5,170.5 388.5,170.5 388.5,160 	"/>
	<polyline clip-path="url(#SVGID_2_)" fill="none" stroke="#6B6B6B" stroke-miterlimit="10" points="388.5,160.5 391.5,159.5 
		391.5,168.5 390.5,169.5 390.5,174.5 389.5,175.5 389.5,170.5 388.5,170.5 388.5,160 	"/>
	<path clip-path="url(#SVGID_2_)" fill="#FFFFFF" d="M248.68,66.021c0.49,14.688,0.865,31.875,0.918,51.094
		c0.063,23.127-0.355,43.519-0.918,60.385h3.673c-0.558-18.576-0.932-40.49-0.81-65.029c0.084-16.995,0.393-32.56,0.81-46.45H248.68
		z"/>
	<path clip-path="url(#SVGID_2_)" fill="none" stroke="#EAEAEA" stroke-miterlimit="10" d="M248.68,66.021
		c0.49,14.688,0.865,31.875,0.918,51.094c0.063,23.127-0.355,43.519-0.918,60.385h3.673c-0.558-18.576-0.932-40.49-0.81-65.029
		c0.084-16.995,0.393-32.56,0.81-46.45H248.68z"/>
	<path clip-path="url(#SVGID_2_)" fill="#FFFFFF" d="M179.226,109.795c55.97-24.012,70.511,28.174,70.511,28.174"/>
	<path clip-path="url(#SVGID_2_)" fill="none" stroke="#EAEAEA" stroke-miterlimit="10" d="M179.226,109.795
		c55.97-24.012,70.511,28.174,70.511,28.174"/>
	<path clip-path="url(#SVGID_2_)" fill="#FFFFFF" d="M250.11,137.034c-55.971,24.012-70.512-28.174-70.512-28.174"/>
	<path clip-path="url(#SVGID_2_)" fill="none" stroke="#EAEAEA" stroke-miterlimit="10" d="M250.11,137.034
		c-55.971,24.012-70.512-28.174-70.512-28.174"/>
	<path clip-path="url(#SVGID_2_)" fill="none" stroke="#EAEAEA" stroke-width="0.5" stroke-miterlimit="10" d="M194.457,116.881
		c0.697,0.383,2.151,1.177,4.001,2.13c25.528,13.164,51.439,18.267,51.44,18.268"/>
	<path clip-path="url(#SVGID_2_)" fill="#FFFFFF" d="M309.971,88.239c-49.054-18.383-59.45,27.039-59.45,27.039"/>
	<path clip-path="url(#SVGID_2_)" fill="none" stroke="#EAEAEA" stroke-miterlimit="10" d="M309.971,88.239
		c-49.054-18.383-59.45,27.039-59.45,27.039"/>
	<path clip-path="url(#SVGID_2_)" fill="#FFFFFF" d="M250.161,114.489c49.054,18.383,59.451-27.039,59.451-27.039"/>
	<path clip-path="url(#SVGID_2_)" fill="none" stroke="#EAEAEA" stroke-miterlimit="10" d="M250.161,114.489
		c49.054,18.383,59.451-27.039,59.451-27.039"/>
	<path clip-path="url(#SVGID_2_)" fill="none" stroke="#EAEAEA" stroke-width="0.5" stroke-miterlimit="10" d="M297.169,94.938
		c-0.584,0.357-1.802,1.098-3.354,1.991c-21.404,12.336-43.462,17.761-43.462,17.761h-0.001"/>
	<path clip-path="url(#SVGID_2_)" fill="#FFFFFF" d="M257.363,56.11c1.508,5.26-0.983,10.588-5.563,11.901
		c-4.583,1.313-9.517-1.886-11.024-7.147c-1.508-5.259,1.175-14.391,5.756-15.704C251.112,43.848,255.855,50.851,257.363,56.11"/>
	<path clip-path="url(#SVGID_2_)" fill="none" stroke="#EAEAEA" stroke-miterlimit="10" d="M257.363,56.11
		c1.508,5.26-0.983,10.588-5.563,11.901c-4.583,1.313-9.517-1.886-11.024-7.147c-1.508-5.259,1.175-14.391,5.756-15.704
		C251.112,43.848,255.855,50.851,257.363,56.11z"/>
	
		<line clip-path="url(#SVGID_2_)" fill="none" stroke="#FFFFFF" stroke-miterlimit="10" x1="390.25" y1="175.5" x2="390.25" y2="180"/>
	<line clip-path="url(#SVGID_2_)" fill="none" stroke="#FFFFFF" stroke-miterlimit="10" x1="378" y1="182" x2="378" y2="187.5"/>
	<line clip-path="url(#SVGID_2_)" fill="none" stroke="#FFFFFF" stroke-miterlimit="10" x1="366" y1="189" x2="366" y2="194.5"/>
	<line clip-path="url(#SVGID_2_)" fill="none" stroke="#FFFFFF" stroke-miterlimit="10" x1="354" y1="197" x2="354" y2="202.5"/>
	<polyline clip-path="url(#SVGID_2_)" fill="none" stroke="#FFFFFF" stroke-miterlimit="10" points="341,206 341,242 341,256.5 	"/>
	<polyline clip-path="url(#SVGID_2_)" fill="none" stroke="#FFFFFF" stroke-miterlimit="10" points="328,214 328,229 333.5,234.5 
		333.5,260 	"/>
	<polyline clip-path="url(#SVGID_2_)" fill="none" stroke="#FFFFFF" stroke-miterlimit="10" points="315,222 315,238 312,241 
		312,255 315,258 315,272 	"/>
	<line clip-path="url(#SVGID_2_)" fill="none" stroke="#FFFFFF" stroke-miterlimit="10" x1="303" y1="229.5" x2="303" y2="236.5"/>
	<line clip-path="url(#SVGID_2_)" fill="none" stroke="#FFFFFF" stroke-miterlimit="10" x1="290.5" y1="237" x2="290.5" y2="243"/>
	<line clip-path="url(#SVGID_2_)" fill="none" stroke="#FFFFFF" stroke-miterlimit="10" x1="277" y1="246" x2="277" y2="251"/>
	<line clip-path="url(#SVGID_2_)" fill="none" stroke="#FFFFFF" stroke-miterlimit="10" x1="263" y1="255" x2="263" y2="260"/>
	<line clip-path="url(#SVGID_2_)" fill="none" stroke="#FFFFFF" stroke-miterlimit="10" x1="110" y1="175" x2="110" y2="180"/>
	<line clip-path="url(#SVGID_2_)" fill="none" stroke="#FFFFFF" stroke-miterlimit="10" x1="122" y1="183" x2="122" y2="187"/>
	<line clip-path="url(#SVGID_2_)" fill="none" stroke="#FFFFFF" stroke-miterlimit="10" x1="136" y1="190.5" x2="136" y2="195.5"/>
	<line clip-path="url(#SVGID_2_)" fill="none" stroke="#FFFFFF" stroke-miterlimit="10" x1="149" y1="199" x2="149" y2="204"/>
	<line clip-path="url(#SVGID_2_)" fill="none" stroke="#FFFFFF" stroke-miterlimit="10" x1="163" y1="207" x2="163" y2="213"/>
	<line clip-path="url(#SVGID_2_)" fill="none" stroke="#FFFFFF" stroke-miterlimit="10" x1="176" y1="215" x2="176" y2="221"/>
	<line clip-path="url(#SVGID_2_)" fill="#FFFFFF" x1="189" y1="223" x2="189" y2="228.5"/>
	<line clip-path="url(#SVGID_2_)" fill="none" stroke="#F2F2F2" stroke-miterlimit="10" x1="189" y1="223" x2="189" y2="228.5"/>
	<line clip-path="url(#SVGID_2_)" fill="none" stroke="#FFFFFF" stroke-miterlimit="10" x1="202" y1="230" x2="202" y2="237"/>
	<line clip-path="url(#SVGID_2_)" fill="none" stroke="#FFFFFF" stroke-miterlimit="10" x1="216" y1="238" x2="216" y2="245"/>
	<line clip-path="url(#SVGID_2_)" fill="none" stroke="#FFFFFF" stroke-miterlimit="10" x1="229" y1="247" x2="229" y2="253"/>
	<line clip-path="url(#SVGID_2_)" fill="none" stroke="#FFFFFF" stroke-miterlimit="10" x1="243" y1="256" x2="243" y2="262"/>
	<polyline clip-path="url(#SVGID_2_)" fill="none" stroke="#FFFFFF" stroke-miterlimit="10" points="328,229 325,237 325,265.5 	"/>
	<polyline clip-path="url(#SVGID_2_)" fill="none" stroke="#FFFFFF" stroke-miterlimit="10" points="189.5,284.5 189.5,295.5 
		193.5,300.5 193.5,326.5 188.921,331.079 	"/>
	<polyline clip-path="url(#SVGID_2_)" fill="none" stroke="#FFFFFF" stroke-miterlimit="10" points="176,277 176,305 172,309 
		172,325 	"/>
	<polyline clip-path="url(#SVGID_2_)" fill="none" stroke="#FFFFFF" stroke-miterlimit="10" points="176.5,289.5 183,296 183,312.5 
		185.5,318.5 	"/>
	<path clip-path="url(#SVGID_2_)" fill="#FFFFFF" d="M185,319.571c-0.015,0.828,0.646,1.511,1.474,1.525
		c0.828,0.015,1.511-0.646,1.526-1.474s-0.646-1.512-1.474-1.525C185.698,318.083,185.015,318.742,185,319.571"/>
	<circle clip-path="url(#SVGID_2_)" fill="none" stroke="#F2F2F2" stroke-miterlimit="10" cx="186.5" cy="319.597" r="1.5"/>
	<polyline clip-path="url(#SVGID_2_)" fill="none" stroke="#FFFFFF" stroke-miterlimit="10" points="163,269 163,280 156,287 
		156,311.44 	"/>
	
		<line clip-path="url(#SVGID_2_)" fill="none" stroke="#FFFFFF" stroke-miterlimit="10" x1="161.5" y1="281.5" x2="161.5" y2="300"/>
	<circle clip-path="url(#SVGID_2_)" fill="none" stroke="#F2F2F2" stroke-miterlimit="10" cx="161.5" cy="302" r="1.5"/>
</g>
</svg>
