<?xml version="1.0" standalone="no"?>
<!DOCTYPE svg PUBLIC "-//W3C//DTD SVG 20010904//EN"
 "http://www.w3.org/TR/2001/REC-SVG-20010904/DTD/svg10.dtd">
<svg version="1.0" xmlns="http://www.w3.org/2000/svg"
 width="1317.000000pt" height="1317.000000pt" viewBox="0 0 1317.000000 1317.000000"
 preserveAspectRatio="xMidYMid meet">
<metadata>
Created by potrace 1.11, written by Peter Selinger 2001-2013
</metadata>
<g transform="translate(0.000000,1317.000000) scale(0.100000,-0.100000)"
fill="#000000" stroke="none">
<path d="M3287 12283 c-3 -5 -743 -1287 -1646 -2851 l-1641 -2842 1645 -2848
1644 -2847 3294 -3 3294 -2 1647 2850 1646 2850 -1646 2850 -1646 2850 -3294
0 c-1811 0 -3295 -3 -3297 -7z m3646 -1032 c103 -44 197 -124 292 -246 111
-144 207 -330 261 -510 23 -76 27 -109 28 -215 0 -144 -14 -213 -71 -330 -46
-93 -159 -210 -249 -258 l-61 -32 -7 -187 c-18 -509 -46 -2196 -45 -2693 l0
-205 40 104 c396 1043 1118 1702 2044 1870 366 66 815 52 1250 -40 187 -39
427 -106 607 -169 l146 -52 -14 -51 c-109 -380 -298 -775 -514 -1077 -243
-339 -549 -617 -880 -799 -326 -180 -664 -273 -1086 -302 -429 -28 -978 57
-1488 231 -50 16 -93 30 -98 30 -20 0 -5 -2325 22 -3435 5 -220 13 -532 16
-693 l7 -292 -126 0 c-69 0 -127 3 -130 8 -2 4 2 189 9 412 18 586 33 1280 41
1868 7 550 8 531 -41 532 -10 0 -69 -20 -131 -44 -443 -175 -886 -289 -1335
-342 -178 -22 -573 -24 -740 -5 -753 85 -1375 402 -1900 967 -307 330 -601
811 -765 1248 -58 156 -66 140 115 213 794 320 1587 444 2225 347 859 -130
1565 -594 2091 -1374 169 -250 332 -562 430 -825 l49 -129 8 114 c10 140 1
2340 -13 3075 -11 579 -26 1207 -36 1491 l-7 182 -44 6 c-158 21 -361 181
-451 353 -67 131 -84 198 -90 365 -3 114 0 170 13 245 62 350 232 612 430 664
47 13 146 2 198 -20z"/>
</g>
</svg>
