<?xml version="1.0" encoding="UTF-8" standalone="no"?>
<!-- Created with Inkscape (http://www.inkscape.org/) -->

<svg
   xmlns:dc="http://purl.org/dc/elements/1.1/"
   xmlns:cc="http://creativecommons.org/ns#"
   xmlns:rdf="http://www.w3.org/1999/02/22-rdf-syntax-ns#"
   xmlns:svg="http://www.w3.org/2000/svg"
   xmlns="http://www.w3.org/2000/svg"
   xmlns:sodipodi="http://sodipodi.sourceforge.net/DTD/sodipodi-0.dtd"
   xmlns:inkscape="http://www.inkscape.org/namespaces/inkscape"
   width="1710.619mm"
   height="1710.619mm"
   viewBox="0 0 1710.619 1710.619"
   version="1.1"
   id="svg183"
   inkscape:version="0.92.2 (5c3e80d, 2017-08-06)"
   sodipodi:docname="taikologo.svg">
  <defs
     id="defs177">
    <clipPath
       clipPathUnits="userSpaceOnUse"
       id="clipPath18">
      <path
         d="M 0,10000 H 10000 V 0 H 0 Z"
         id="path16"
         inkscape:connector-curvature="0" />
    </clipPath>
  </defs>
  <sodipodi:namedview
     id="base"
     pagecolor="#ffffff"
     bordercolor="#666666"
     borderopacity="1.0"
     inkscape:pageopacity="0.0"
     inkscape:pageshadow="2"
     inkscape:zoom="0.35"
     inkscape:cx="10746.952"
     inkscape:cy="-2370.1913"
     inkscape:document-units="mm"
     inkscape:current-layer="layer1"
     showgrid="false"
     inkscape:window-width="1920"
     inkscape:window-height="1029"
     inkscape:window-x="0"
     inkscape:window-y="27"
     inkscape:window-maximized="1"
     fit-margin-top="0"
     fit-margin-left="0"
     fit-margin-right="0"
     fit-margin-bottom="0" />
  <metadata
     id="metadata180">
    <rdf:RDF>
      <cc:Work
         rdf:about="">
        <dc:format>image/svg+xml</dc:format>
        <dc:type
           rdf:resource="http://purl.org/dc/dcmitype/StillImage" />
        <dc:title></dc:title>
      </cc:Work>
    </rdf:RDF>
  </metadata>
  <g
     inkscape:label="Layer 1"
     inkscape:groupmode="layer"
     id="layer1"
     transform="translate(1014.0595,828.18456)">
    <g
       transform="matrix(0.35277777,0,0,-0.35277777,-2067.1014,2521.0872)"
       id="g12">
      <g
         id="g14"
         clip-path="url(#clipPath18)">
        <g
           id="g20"
           transform="translate(7781.9697,6527.5259)">
          <path
             d="M 0,0 C -267.421,-957.591 -872.024,-1562.896 -1823.219,-1828.227 H 0 Z m -4741.816,-6.968 v -1822.1 h 1824.648 c -957.626,267.589 -1561.146,874.506 -1824.648,1822.1 M -3.081,1093.372 v 1821.805 h -1834.62 C -875.303,2648.214 -267.859,2043.026 -3.081,1093.372 M -4745.649,1074.3 c 267.185,965.197 873.902,1571.614 1822.909,1836.496 h -1822.909 z m 2376.998,-2907.533 C -1069.26,-1849.726 -61.053,-785.273 4.288,391.286 85.941,1861.576 -1110.907,2905.917 -2331.061,2922.119 -3670.485,2939.902 -4748.72,1834.853 -4752.456,549.076 c -3.798,-1307.207 1090.575,-2409.969 2383.805,-2382.309 m 2420.68,-49.292 c -1616.332,0 -3232.665,0 -4848.998,-10e-4 0,1616.333 0,3232.666 0,4848.999 1616.332,0 3232.664,0 4848.997,0 0.001,-1616.332 0.001,-3232.666 0.002,-4848.999"
             style="fill:#000000;fill-opacity:1;fill-rule:nonzero;stroke:none"
             id="path22"
             inkscape:connector-curvature="0" />
        </g>
        <g
           id="g24"
           transform="translate(4897.2163,6105.1338)">
          <path
             d="m 0,0 c 14.036,-41.498 40.447,-85.095 41.711,-129.409 4.985,-174.695 4.516,-349.672 0.534,-524.417 -1.134,-49.758 -20.998,-99.089 -31.841,-146.718 h 169.649 c -12.428,41.176 -34.953,82.644 -35.873,124.586 -4.013,182.939 -4.457,366.084 0.201,548.992 1.121,44.022 26.718,87.421 39.7,126.966 z m 775.169,-801.223 c -201.912,117.683 -350.12,290.07 -519.794,451.435 155.82,110.551 247.758,277.126 429.61,350.896 h -223.17 c 37.195,-64.12 39.497,-71.316 -39.062,-150.574 -84.175,-84.927 -175.46,-162.807 -266.656,-246.531 102.735,-97.371 201.57,-190.863 300.175,-284.598 36.766,-34.949 67.271,-71.321 10.385,-120.628 z m -1526.024,1.156 c -57.726,253.028 -11.056,509.762 -29.79,769.158 116.062,-1.718 227.589,28.057 295.417,-100.091 V -1.791 h -673.168 c -5.665,-51.757 -11.29,-103.147 -16.915,-154.538 51.636,121.291 107.728,145.103 298.647,117.095 0,-205.824 1.823,-412.93 -1.379,-619.958 -0.731,-47.249 -18.816,-94.229 -28.815,-140.875 z m -841.844,922.67 c 0.01,-10.76 0.01,-21.521 0.015,-32.281 30.528,-1.778 61.056,-5.101 91.583,-5.109 C -493.733,84.932 513.633,84.963 1521,84.96 c 355.865,-10e-4 711.73,-0.296 1067.59,0.768 24.021,0.072 48.01,10.508 72.014,16.124 -1.977,6.917 -3.953,13.834 -5.93,20.751 z m 3100.063,-922.544 c 17.509,97.384 -24.538,150.665 -95.186,212.147 -139.216,121.151 -111.886,444.86 67.297,542.685 115.654,63.14 296.951,36.079 372.658,-61.009 99.592,-127.716 104.649,-383.97 -4.55,-475.131 -72.638,-60.639 -113.086,-121.324 -97.788,-217.52 h 328.309 v 127.138 c -86.349,-90.498 -191.401,-32.656 -293.552,-35.611 13.296,26.614 31.144,44.233 52.605,52.839 135.164,54.198 222.019,179.908 220.175,322.401 -1.873,144.591 -87.49,274.017 -227.906,314.713 -86.858,25.174 -181.19,35.65 -271.875,34.216 -187.468,-2.964 -333.853,-134.873 -355.443,-327.323 -13.035,-116.191 29.899,-261.53 224.173,-341.363 21.207,-8.715 36.992,-30.623 67.739,-57.151 -165.637,-25.335 -245.276,-15.781 -311.013,28.945 V -799.941 Z M 760.137,499.364 c 43.071,-44.599 84.56,-92.005 130.646,-134.415 118.179,-108.749 261.43,-164.36 418.895,-180.429 211.705,-21.603 417.63,10.445 617.463,82.168 336.837,120.897 627.227,302.534 800.295,629.803 17.726,33.519 19.658,94.258 0.67,124.809 -58.462,94.063 -132.985,177.985 -196.007,269.472 -18.224,26.455 -28.43,65.948 -25.713,98.06 14.63,172.929 36.786,345.237 50.213,518.236 2.161,27.834 -19.156,67.753 -42.325,85.47 -88.343,67.552 -182.658,127.234 -272.864,192.455 -19.132,13.832 -36.616,36.473 -44.162,58.69 -36.454,107.31 -67.612,216.432 -104.759,323.486 -7.272,20.957 -29.819,45.471 -50.281,51.498 -100.525,29.607 -201.751,59.025 -304.723,77.238 -55.056,9.74 -90.651,27.639 -108.923,80.801 -17.198,50.035 -41.159,92.725 -103.837,99.466 -86.196,9.269 -172.336,21.054 -257.563,36.819 -95.813,17.725 -193.162,9.126 -282.071,79.934 -130.481,103.917 -278.01,186.823 -421,274.224 -21.934,13.408 -65.173,14.446 -87.141,1.631 -133.41,-77.821 -263.401,-161.495 -394.772,-242.829 -53.534,-33.143 -104.197,-83.029 -162.221,-94.399 -138.089,-27.059 -279.597,-37.729 -420.107,-50.94 -72.187,-6.787 -118.866,-36.657 -143.095,-107.286 -7.9,-23.024 -32.966,-48.985 -55.743,-56.313 -53.585,-17.241 -110.081,-27.932 -166.191,-34.332 -138.021,-15.743 -226.658,-80.054 -247.475,-225.436 -7.204,-50.312 -34.127,-97.745 -41.837,-148.057 -9.403,-61.351 -39.546,-98.607 -91.904,-130.6 -85.417,-52.194 -167.453,-110.689 -246.232,-172.495 -22.233,-17.444 -41.935,-57.036 -39.288,-84.177 16.286,-166.987 38.116,-333.48 60.849,-499.763 6.441,-47.107 2.512,-80.2 -33.834,-120.669 -81.288,-90.506 -153.717,-189.862 -221.122,-291.346 -17.812,-26.818 -17.83,-81.279 -2.779,-111.457 80.426,-161.259 198.918,-293.26 342.823,-400.479 248.929,-185.47 532.232,-292.113 838.024,-326.934 229.46,-26.129 452.944,8.909 638.303,165.119 62.002,52.252 114.741,115.493 171.779,173.777 164.483,-93.098 327.232,-96.519 498.009,-10.8 M 516.102,-1410.841 c -1293.23,-27.66 -2387.603,1075.102 -2383.805,2382.309 3.736,1285.777 1081.971,2390.826 2421.396,2373.043 C 1773.846,3328.31 2970.695,2283.968 2889.042,813.678 2823.701,-362.881 1815.494,-1427.334 516.102,-1410.841"
             style="fill:#ffffff;fill-opacity:1;fill-rule:nonzero;stroke:none"
             id="path26"
             inkscape:connector-curvature="0" />
        </g>
        <g
           id="g28"
           transform="translate(3036.3208,7601.8262)">
          <path
             d="M 0,0 V 1836.496 H 1822.909 C 873.902,1571.613 267.185,965.196 0,0"
             style="fill:#ffffff;fill-opacity:1;fill-rule:nonzero;stroke:none"
             id="path30"
             inkscape:connector-curvature="0" />
        </g>
        <g
           id="g32"
           transform="translate(7778.8887,7620.8979)">
          <path
             d="M 0,0 C -264.778,949.654 -872.222,1554.842 -1834.62,1821.805 H 0 Z"
             style="fill:#ffffff;fill-opacity:1;fill-rule:nonzero;stroke:none"
             id="path34"
             inkscape:connector-curvature="0" />
        </g>
        <g
           id="g36"
           transform="translate(3040.1538,6520.5581)">
          <path
             d="M 0,0 C 263.501,-947.595 867.022,-1554.511 1824.647,-1822.1 H 0 Z"
             style="fill:#ffffff;fill-opacity:1;fill-rule:nonzero;stroke:none"
             id="path38"
             inkscape:connector-curvature="0" />
        </g>
        <g
           id="g40"
           transform="translate(7781.9697,6527.5259)">
          <path
             d="M 0,0 V -1828.227 H -1823.219 C -872.024,-1562.896 -267.421,-957.591 0,0"
             style="fill:#ffffff;fill-opacity:1;fill-rule:nonzero;stroke:none"
             id="path42"
             inkscape:connector-curvature="0" />
        </g>
        <g
           id="g44"
           transform="translate(4934.271,7009.3887)">
          <path
             d="m 0,0 c -28.041,1.968 -50.237,1.237 -71.493,5.36 -328.382,63.695 -625.816,196.43 -874.457,421.197 -183.344,165.74 -302.289,370.172 -296.015,628.652 1.527,62.961 9.352,125.77 16.114,212.031 -100.352,-71.937 -184.815,-129.786 -265.508,-192.488 -17.221,-13.382 -30.326,-44.969 -28.993,-67.19 7.639,-127.323 15.131,-255.031 32.082,-381.346 44.889,-334.479 229.602,-556.206 545.62,-676.503 201.638,-76.755 410.664,-101.408 622.153,-104.741 113.981,-1.796 228.389,23.424 342.522,36.446 C 12.587,-67.769 6.727,-36.216 0,0 m 1084.962,1986.533 c 42.715,-75.17 77.892,-126.779 102.95,-182.907 125.493,-281.105 85.993,-563.062 -6.644,-842.042 C 1114.237,759.715 1020.922,570.841 882.713,405.53 861.952,380.697 868.475,333.053 862.376,295.96 c 31.463,4.589 66.224,2.072 93.863,14.901 204.303,94.834 391.145,216.779 540.996,386.486 128.035,145.001 218.76,308.755 219.53,511.142 0.924,242.784 -80.235,462.622 -182.186,677.105 -7.343,15.449 -22.506,35.691 -36.658,38.066 -130.747,21.943 -262.072,40.441 -412.959,62.873 m 1087.023,-731.744 c 6.775,-49.527 12.538,-72.448 12.58,-95.379 0.159,-86.535 9.122,-174.8 -4.557,-259.285 -40.162,-248.057 -189.72,-427.654 -385.034,-573.113 -246.87,-183.856 -523.172,-299.35 -826.456,-343.938 -30.081,-124.514 -30.273,-125.828 89.75,-143.38 265.138,-38.774 526.528,-12.774 779.837,67.984 240.507,76.677 443.05,209.461 542.888,455.822 81.712,201.632 95.294,416.335 105.607,630.654 0.771,16.006 -7.414,39.02 -19.468,48.018 -90.699,67.707 -183.415,132.715 -295.147,212.617 M 51.115,218.355 c -25.129,11.171 -49.511,21.536 -73.497,32.745 -251.624,117.585 -482.255,263.837 -651.173,490.442 -138.2,185.396 -210.334,389.847 -159.268,623.737 28.497,130.524 61.479,260.069 95.852,404.383 -90.267,-22.738 -177.002,-39.332 -259.527,-68.03 -31.815,-11.064 -68.815,-45.237 -78.114,-76.435 -39.933,-133.976 -74.331,-269.93 -103.574,-406.697 -61.58,-288.01 27.589,-531.842 235.011,-732.855 190.23,-184.353 419.54,-305.611 671.176,-383.425 88.457,-27.354 181.038,-41.377 269.711,-61.038 20.746,68.828 35.54,117.91 53.403,177.173 M 969.193,37.239 c 21.146,0 43.353,-3.732 63.878,0.568 254.164,53.246 489.399,150.015 702.104,301.257 193.935,137.895 349.856,305.421 396.588,545.389 40.866,209.844 -11.172,413.298 -62.799,617.834 -34.716,137.539 -107.714,206.067 -241.912,223.667 -57.609,7.556 -114.639,19.512 -180.061,30.882 7.836,-23.977 13.744,-38.419 17.275,-53.421 33.996,-144.44 87.386,-287.642 97.229,-433.757 21.213,-314.91 -141.03,-553.057 -376.531,-739.249 C 1239.718,415.574 1075.762,324.402 915.119,219.277 930.143,168.697 949.108,104.854 969.193,37.239 M -136.005,1987.94 c -134.645,-19.765 -264.321,-44.604 -395.159,-55.542 -64.648,-5.403 -89.692,-36.384 -108.252,-88.514 -38.815,-109.03 -84.168,-215.986 -117.93,-326.513 -92.675,-303.392 -43.038,-578.941 174.023,-817.252 160.121,-175.797 355.097,-301.48 568.409,-403.972 74.264,-35.682 119.196,-35.192 148.43,50.462 -141.106,147.709 -244.858,322.071 -317.447,513.843 -100.031,264.273 -169.706,534.895 -86.549,817.244 29.916,101.575 84.079,196.008 134.475,310.244 M 771.529,-389.058 c 104.195,-126.721 230.907,-223.243 396.568,-266.78 233.354,-61.327 458.765,-21.771 679.195,51.998 332.578,111.3 622.144,284.657 797.731,604.705 13.033,23.757 27.095,64.054 16.236,81.005 -64.63,100.896 -136.454,197.181 -218.36,312.63 C 2374.377,217.21 2278.005,97.014 2146.364,9.82 1787.338,-227.982 1388.689,-243.467 978.615,-191.234 c -22.89,2.916 -56.867,-3.781 -70.462,-19.321 -47.979,-54.84 -89.326,-115.482 -136.624,-178.503 m -2259.234,798.76 c -80.518,-107.232 -153.468,-204.639 -226.72,-301.816 -29.724,-39.432 -26.372,-75.014 -1.432,-118.481 165.597,-288.602 422.633,-460.923 724.525,-577.657 205.666,-79.526 419.043,-120.302 638.554,-97.728 224.781,23.116 407.925,127.623 530.806,312.769 -42.372,61.123 -82.183,122.463 -126.69,180.183 -12.108,15.702 -40.946,32.197 -57.742,28.5 -197.191,-43.4 -395.043,-41.309 -593.37,-13.799 -381.638,52.94 -712.813,185.268 -887.931,588.029 M 789.852,379.4 c 31.437,32.949 59.911,62.148 87.545,92.123 9.176,9.953 16.391,21.76 24.158,32.958 164.621,237.311 269.045,496.58 309.092,784.738 32.752,235.664 1.668,458.34 -154.218,635.646 -109.253,124.266 -258.191,214.116 -391.512,316.6 -114.584,88.08 -227.147,102.729 -356.6,12.178 -156.481,-109.459 -320.97,-207.759 -434.227,-365.926 -146.08,-204.005 -154.63,-435.269 -112.969,-670.766 53.322,-301.412 174.581,-573.582 375.421,-806.918 12.243,-14.224 52.394,-23.274 66.433,-14.268 197.111,126.445 389.43,113.479 586.877,-16.365 m -66.769,-784.291 c -170.778,-85.719 -333.527,-82.297 -498.009,10.8 -57.038,-58.284 -109.778,-121.525 -171.78,-173.777 -185.359,-156.21 -408.842,-191.248 -638.303,-165.119 -305.791,34.821 -589.095,141.465 -838.024,326.934 -143.905,107.219 -262.397,239.22 -342.822,400.479 -15.052,30.178 -15.034,84.639 2.778,111.457 67.405,101.484 139.834,200.84 221.122,291.346 36.347,40.469 40.275,73.562 33.834,120.669 -22.733,166.283 -44.563,332.776 -60.849,499.763 -2.646,27.141 17.055,66.734 39.288,84.177 78.779,61.806 160.815,120.301 246.233,172.495 52.358,31.993 82.501,69.249 91.903,130.6 7.711,50.312 34.633,97.745 41.838,148.057 20.816,145.382 109.454,209.694 247.475,225.436 56.109,6.4 112.605,17.092 166.19,34.332 22.777,7.328 47.844,33.289 55.743,56.313 24.23,70.629 70.908,100.499 143.095,107.286 140.51,13.211 282.018,23.881 420.107,50.94 58.024,11.37 108.687,61.256 162.221,94.399 131.372,81.334 261.362,165.008 394.772,242.829 21.969,12.815 65.207,11.777 87.142,-1.63 142.989,-87.402 290.518,-170.308 421,-274.225 88.908,-70.808 186.257,-62.209 282.07,-79.934 85.227,-15.765 171.367,-27.549 257.563,-36.819 62.678,-6.741 86.639,-49.431 103.837,-99.466 18.273,-53.162 53.868,-71.061 108.923,-80.801 102.972,-18.212 204.198,-47.63 304.723,-77.238 20.463,-6.027 43.01,-30.541 50.281,-51.498 37.148,-107.054 68.306,-216.176 104.759,-323.486 7.547,-22.217 25.03,-44.858 44.162,-58.69 90.206,-65.22 184.521,-124.903 272.864,-192.455 23.169,-17.717 44.487,-57.636 42.325,-85.47 -13.426,-172.999 -35.583,-345.307 -50.212,-518.236 -2.717,-32.112 7.489,-71.605 25.712,-98.059 63.022,-91.488 137.545,-175.41 196.007,-269.473 18.989,-30.551 17.056,-91.29 -0.67,-124.809 -173.068,-327.269 -463.458,-508.905 -800.295,-629.802 -199.833,-71.724 -405.757,-103.772 -617.462,-82.169 -157.465,16.069 -300.716,71.68 -418.896,180.429 -46.086,42.41 -87.575,89.816 -130.645,134.415"
             style="fill:#000000;fill-opacity:1;fill-rule:nonzero;stroke:none"
             id="path46"
             inkscape:connector-curvature="0" />
        </g>
        <g
           id="g48"
           transform="translate(6404.5801,5305.1924)">
          <path
             d="M 0,0 H -324.356 V 119.976 C -258.62,75.25 -178.98,65.697 -13.344,91.032 c -30.747,26.527 -46.532,48.435 -67.739,57.15 -194.273,79.833 -237.208,225.172 -224.173,341.364 21.59,192.45 167.976,324.358 355.444,327.323 90.684,1.433 185.016,-9.042 271.874,-34.216 C 462.479,741.956 548.096,612.531 549.968,467.939 551.812,325.447 464.957,199.736 329.793,145.538 308.332,136.932 290.484,119.313 277.188,92.699 379.339,95.655 484.392,37.813 570.74,128.311 V 1.172 H 242.432 c -15.299,96.197 25.149,156.882 97.787,217.52 109.199,91.161 104.142,347.415 4.551,475.132 C 269.062,790.911 87.766,817.973 -27.889,754.832 -207.072,657.007 -234.401,333.299 -95.186,212.147 -24.538,150.666 17.509,97.384 0,0"
             style="fill:#000000;fill-opacity:1;fill-rule:nonzero;stroke:none"
             id="path50"
             inkscape:connector-curvature="0" />
        </g>
        <g
           id="g52"
           transform="translate(3304.5176,6227.7368)">
          <path
             d="m 0,0 h 4247.373 c 1.977,-6.917 3.953,-13.834 5.93,-20.751 -24.004,-5.616 -47.993,-16.052 -72.014,-16.124 -355.86,-1.064 -711.726,-0.769 -1067.59,-0.768 C 2106.332,-37.64 1098.965,-37.671 91.598,-37.39 61.07,-37.382 30.543,-34.059 0.015,-32.281 0.01,-21.521 0.005,-10.76 0,0"
             style="fill:#000000;fill-opacity:1;fill-rule:nonzero;stroke:none"
             id="path54"
             inkscape:connector-curvature="0" />
        </g>
        <g
           id="g56"
           transform="translate(4146.3608,5305.0669)">
          <path
             d="m 0,0 h -156.003 c 10,46.646 28.084,93.626 28.815,140.875 3.203,207.028 1.38,414.134 1.38,619.958 -190.919,28.008 -247.012,4.196 -298.648,-117.095 5.625,51.39 11.25,102.781 16.916,154.538 H 265.627 V 669.067 C 197.8,797.215 86.273,767.439 -29.79,769.158 -11.055,509.762 -57.726,253.028 0,0"
             style="fill:#000000;fill-opacity:1;fill-rule:nonzero;stroke:none"
             id="path58"
             inkscape:connector-curvature="0" />
        </g>
        <g
           id="g60"
           transform="translate(5672.3857,5303.9111)">
          <path
             d="m 0,0 h -308.513 c 56.887,49.307 26.381,85.678 -10.384,120.627 -98.605,93.736 -197.441,187.228 -300.175,284.599 91.196,83.723 182.48,161.604 266.656,246.53 78.559,79.259 76.257,86.454 39.062,150.575 H -90.185 C -272.036,728.561 -363.975,561.986 -519.795,451.435 -350.12,290.07 -201.912,117.683 0,0"
             style="fill:#000000;fill-opacity:1;fill-rule:nonzero;stroke:none"
             id="path62"
             inkscape:connector-curvature="0" />
        </g>
        <g
           id="g64"
           transform="translate(4897.2163,6105.1338)">
          <path
             d="m 0,0 h 184.081 c -12.982,-39.545 -38.579,-82.944 -39.7,-126.966 -4.658,-182.908 -4.214,-366.053 -0.201,-548.992 0.92,-41.942 23.445,-83.41 35.873,-124.586 H 10.404 c 10.843,47.629 30.707,96.96 31.841,146.718 3.982,174.745 4.451,349.722 -0.534,524.417 C 40.447,-85.095 14.036,-41.498 0,0"
             style="fill:#000000;fill-opacity:1;fill-rule:nonzero;stroke:none"
             id="path66"
             inkscape:connector-curvature="0" />
        </g>
        <g
           id="g68"
           transform="translate(5724.123,7388.7886)">
          <path
             d="m 0,0 c -197.447,129.844 -389.766,142.811 -586.877,16.365 -14.039,-9.006 -54.19,0.044 -66.434,14.268 -200.839,233.336 -322.098,505.506 -375.42,806.918 -41.661,235.497 -33.111,466.761 112.969,670.766 113.257,158.167 277.746,256.467 434.227,365.926 129.453,90.551 242.015,75.902 356.6,-12.178 C 8.386,1759.582 157.324,1669.731 266.577,1545.465 422.463,1368.159 453.547,1145.483 420.795,909.819 380.748,621.661 276.324,362.393 111.703,125.081 103.936,113.883 96.721,102.076 87.545,92.123 59.911,62.148 31.437,32.949 0,0"
             style="fill:#ffffff;fill-opacity:1;fill-rule:nonzero;stroke:none"
             id="path70"
             inkscape:connector-curvature="0" />
        </g>
        <g
           id="g72"
           transform="translate(3446.5659,7419.0903)">
          <path
             d="m 0,0 c 175.118,-402.76 506.293,-535.088 887.931,-588.028 198.327,-27.511 396.179,-29.601 593.37,13.799 16.796,3.696 45.634,-12.799 57.742,-28.501 44.507,-57.719 84.318,-119.06 126.69,-180.183 -122.88,-185.146 -306.025,-289.652 -530.806,-312.769 -219.511,-22.574 -432.887,18.202 -638.554,97.728 -301.892,116.735 -558.928,289.056 -724.525,577.658 -24.94,43.466 -28.292,79.048 1.432,118.48 C -153.468,-204.638 -80.518,-107.232 0,0"
             style="fill:#ffffff;fill-opacity:1;fill-rule:nonzero;stroke:none"
             id="path74"
             inkscape:connector-curvature="0" />
        </g>
        <g
           id="g76"
           transform="translate(5705.7998,6620.3311)">
          <path
             d="m 0,0 c 47.298,63.021 88.646,123.663 136.624,178.503 13.595,15.539 47.572,22.236 70.462,19.321 410.074,-52.234 808.724,-36.749 1167.749,201.054 131.642,87.193 228.014,207.39 296.535,384.68 81.906,-115.45 153.731,-211.735 218.36,-312.63 10.859,-16.951 -3.203,-57.249 -16.236,-81.006 C 1697.907,69.875 1408.341,-103.482 1075.764,-214.783 855.333,-288.551 629.922,-328.107 396.568,-266.781 230.907,-223.244 104.195,-126.722 0,0"
             style="fill:#ffffff;fill-opacity:1;fill-rule:nonzero;stroke:none"
             id="path78"
             inkscape:connector-curvature="0" />
        </g>
        <g
           id="g80"
           transform="translate(4798.2656,8997.3291)">
          <path
             d="m 0,0 c -50.396,-114.236 -104.559,-208.67 -134.475,-310.244 -83.156,-282.35 -13.482,-552.972 86.549,-817.244 72.589,-191.773 176.342,-366.135 317.447,-513.844 -29.234,-85.653 -74.166,-86.144 -148.429,-50.461 -213.312,102.491 -408.289,228.175 -568.409,403.971 -217.062,238.312 -266.699,513.86 -174.024,817.253 33.762,110.527 79.115,217.482 117.931,326.512 18.559,52.13 43.604,83.112 108.251,88.515 C -264.321,-44.604 -134.645,-19.766 0,0"
             style="fill:#ffffff;fill-opacity:1;fill-rule:nonzero;stroke:none"
             id="path82"
             inkscape:connector-curvature="0" />
        </g>
        <g
           id="g84"
           transform="translate(5903.4639,7046.6279)">
          <path
             d="m 0,0 c -20.085,67.614 -39.05,131.458 -54.074,182.038 160.643,105.125 324.599,196.296 469.845,311.131 235.501,186.192 397.745,424.339 376.531,739.25 -9.843,146.115 -63.233,289.316 -97.229,433.757 -3.531,15.002 -9.439,29.444 -17.275,53.421 65.422,-11.37 122.452,-23.326 180.061,-30.882 134.198,-17.601 207.196,-86.128 241.912,-223.667 51.627,-204.536 103.666,-407.99 62.799,-617.835 C 1115.838,607.246 959.917,439.72 765.982,301.825 553.277,150.583 318.042,53.813 63.878,0.567 43.354,-3.732 21.146,0 0,0"
             style="fill:#ffffff;fill-opacity:1;fill-rule:nonzero;stroke:none"
             id="path86"
             inkscape:connector-curvature="0" />
        </g>
        <g
           id="g88"
           transform="translate(4985.3862,7227.7441)">
          <path
             d="m 0,0 c -17.863,-59.263 -32.657,-108.345 -53.403,-177.173 -88.674,19.66 -181.254,33.684 -269.711,61.037 -251.636,77.814 -480.946,199.073 -671.177,383.426 -207.421,201.012 -296.59,444.844 -235.01,732.855 29.242,136.766 63.64,272.72 103.574,406.697 9.299,31.197 46.299,65.371 78.114,76.434 82.525,28.699 169.26,45.292 259.527,68.031 -34.373,-144.315 -67.355,-273.86 -95.852,-404.383 C -935.004,913.033 -862.871,708.583 -724.67,523.186 -555.752,296.581 -325.122,150.329 -73.497,32.745 -49.511,21.536 -25.129,11.171 0,0"
             style="fill:#ffffff;fill-opacity:1;fill-rule:nonzero;stroke:none"
             id="path90"
             inkscape:connector-curvature="0" />
        </g>
        <g
           id="g92"
           transform="translate(7106.2559,8264.1777)">
          <path
             d="m 0,0 c 111.732,-79.902 204.448,-144.91 295.147,-212.617 12.054,-8.998 20.239,-32.012 19.468,-48.018 -10.313,-214.319 -23.895,-429.022 -105.607,-630.655 -99.838,-246.36 -302.381,-379.144 -542.888,-455.821 -253.308,-80.758 -514.699,-106.758 -779.837,-67.984 -120.023,17.552 -119.831,18.866 -89.75,143.38 303.284,44.588 579.586,160.082 826.456,343.938 195.314,145.459 344.872,325.056 385.034,573.113 13.679,84.485 4.716,172.749 4.557,259.285 C 12.538,-72.448 6.775,-49.527 0,0"
             style="fill:#ffffff;fill-opacity:1;fill-rule:nonzero;stroke:none"
             id="path94"
             inkscape:connector-curvature="0" />
        </g>
        <g
           id="g96"
           transform="translate(6019.2334,8995.9219)">
          <path
             d="m 0,0 c 150.887,-22.433 282.212,-40.931 412.959,-62.873 14.151,-2.375 29.314,-22.617 36.657,-38.066 101.951,-214.483 183.111,-434.321 182.187,-677.105 -0.771,-202.388 -91.495,-366.141 -219.531,-511.142 -149.85,-169.707 -336.692,-291.652 -540.996,-386.486 -27.638,-12.829 -62.399,-10.312 -93.862,-14.901 6.099,37.093 -0.425,84.737 20.337,109.57 138.209,165.311 231.523,354.185 298.555,556.054 92.636,278.98 132.136,560.937 6.643,842.042 C 77.892,-126.779 42.715,-75.17 0,0"
             style="fill:#ffffff;fill-opacity:1;fill-rule:nonzero;stroke:none"
             id="path98"
             inkscape:connector-curvature="0" />
        </g>
        <g
           id="g100"
           transform="translate(4934.271,7009.3887)">
          <path
             d="m 0,0 c 6.727,-36.216 12.587,-67.769 22.025,-118.582 -114.133,-13.022 -228.541,-38.242 -342.522,-36.446 -211.489,3.333 -420.515,27.986 -622.153,104.741 -316.018,120.297 -500.731,342.024 -545.62,676.503 -16.951,126.315 -24.443,254.023 -32.082,381.346 -1.333,22.221 11.772,53.808 28.993,67.19 80.693,62.702 165.156,120.551 265.508,192.488 -6.762,-86.261 -14.587,-149.07 -16.114,-212.031 -6.274,-258.48 112.671,-462.912 296.015,-628.652 C -697.309,201.79 -399.875,69.055 -71.493,5.36 -50.237,1.237 -28.041,1.968 0,0"
             style="fill:#ffffff;fill-opacity:1;fill-rule:nonzero;stroke:none"
             id="path102"
             inkscape:connector-curvature="0" />
        </g>
      </g>
    </g>
  </g>
</svg>
