<?xml version="1.0" encoding="UTF-8" standalone="no"?>
<!-- Created with Inkscape (http://www.inkscape.org/) -->

<svg
   xmlns:dc="http://purl.org/dc/elements/1.1/"
   xmlns:cc="http://creativecommons.org/ns#"
   xmlns:rdf="http://www.w3.org/1999/02/22-rdf-syntax-ns#"
   xmlns:svg="http://www.w3.org/2000/svg"
   xmlns="http://www.w3.org/2000/svg"
   xmlns:sodipodi="http://sodipodi.sourceforge.net/DTD/sodipodi-0.dtd"
   xmlns:inkscape="http://www.inkscape.org/namespaces/inkscape"
   version="1.1"
   id="svg3718"
   xml:space="preserve"
   width="950.22266"
   height="311.91599"
   viewBox="0 0 950.22266 311.91599"
   sodipodi:docname="Vitech-Logo.svg"
   inkscape:version="0.92.2 (5c3e80d, 2017-08-06)"><metadata
     id="metadata3724"><rdf:RDF><cc:Work
         rdf:about=""><dc:format>image/svg+xml</dc:format><dc:type
           rdf:resource="http://purl.org/dc/dcmitype/StillImage" /><dc:title></dc:title></cc:Work></rdf:RDF></metadata><defs
     id="defs3722"><clipPath
       clipPathUnits="userSpaceOnUse"
       id="clipPath3742"><path
         d="M 0,233.937 H 712.667 V 0 H 0 Z"
         id="path3740"
         inkscape:connector-curvature="0" /></clipPath></defs><sodipodi:namedview
     pagecolor="#ffffff"
     bordercolor="#666666"
     borderopacity="1"
     objecttolerance="10"
     gridtolerance="10"
     guidetolerance="10"
     inkscape:pageopacity="0"
     inkscape:pageshadow="2"
     inkscape:window-width="1920"
     inkscape:window-height="1029"
     id="namedview3720"
     showgrid="false"
     inkscape:zoom="1.856407"
     inkscape:cx="475.11133"
     inkscape:cy="155.95799"
     inkscape:window-x="0"
     inkscape:window-y="27"
     inkscape:window-maximized="1"
     inkscape:current-layer="g3726" /><g
     id="g3726"
     inkscape:groupmode="layer"
     inkscape:label="Vitech Logo"
     transform="matrix(1.3333333,0,0,-1.3333333,0,311.916)"><g
       id="g3728"
       transform="translate(72.715,51.6985)"><path
         d="M 0,0 43.553,97.884 H 58.448 L 7.564,-16.741 H -7.335 L -58.241,97.884 h 14.67 z"
         style="fill:#2a5086;fill-opacity:1;fill-rule:nonzero;stroke:none"
         id="path3730"
         inkscape:connector-curvature="0" /></g><path
       d="m 142.849,164.442 h 13.762 v 15.793 h -13.762 z"
       style="fill:#2a5086;fill-opacity:1;fill-rule:nonzero;stroke:none"
       id="path3732"
       inkscape:connector-curvature="0" /><path
       d="m 142.849,34.953 h 13.762 v 114.622 h -13.762 z"
       style="fill:#2a5086;fill-opacity:1;fill-rule:nonzero;stroke:none"
       id="path3734"
       inkscape:connector-curvature="0" /><g
       id="g3736"><g
         id="g3738"
         clip-path="url(#clipPath3742)"><g
           id="g3744"
           transform="translate(251.229,99.146)"><path
             d="M 0,0 H 85.974 C 82.768,20.862 64.887,36.675 43.097,36.675 21.319,36.675 3.438,20.862 0,0 m 43.097,-50.432 c 11.93,0 22.938,4.816 30.724,12.595 l 9.867,-9.386 c -10.328,-10.553 -24.771,-16.97 -40.591,-16.97 -31.625,0 -57.313,25.672 -57.313,57.312 0,31.645 25.688,57.318 57.313,57.318 31.645,0 57.312,-25.673 57.312,-57.318 v -6.876 H 0 c 3.438,-20.857 21.319,-36.675 43.097,-36.675"
             style="fill:#2a5086;fill-opacity:1;fill-rule:nonzero;stroke:none"
             id="path3746"
             inkscape:connector-curvature="0" /></g><g
           id="g3748"
           transform="translate(388.318,122.9873)"><path
             d="m 0,0 c -17.195,-16.965 -17.195,-44.474 0,-61.439 16.965,-17.195 44.476,-17.195 61.436,0 l 9.868,-9.87 c -22.469,-22.234 -58.687,-22.234 -81.176,0 -22.222,22.469 -22.222,58.705 0,81.169 22.489,22.234 58.707,22.234 81.176,0 L 61.436,0 C 44.476,17.2 16.965,17.2 0,0"
             style="fill:#2a5086;fill-opacity:1;fill-rule:nonzero;stroke:none"
             id="path3750"
             inkscape:connector-curvature="0" /></g><g
           id="g3752"
           transform="translate(572.0605,92.2702)"><path
             d="M 0,0 C 0,24.068 -19.497,43.551 -43.561,43.551 -67.18,43.551 -87.114,23.15 -87.114,0 v -57.312 h -13.764 v 171.94 h 13.764 V 37.139 c 10.534,12.382 26.134,20.173 43.553,20.173 31.638,0 57.32,-25.684 57.32,-57.312 V -57.312 H 0 Z"
             style="fill:#2a5086;fill-opacity:1;fill-rule:nonzero;stroke:none"
             id="path3754"
             inkscape:connector-curvature="0" /></g><g
           id="g3756"
           transform="translate(556.7245,206.8977)"><path
             d="M 0,0 C 88.913,-83.889 56.102,-171.945 56.102,-171.945 106.938,-72.329 29.085,0 29.085,0 Z"
             style="fill:#7db500;fill-opacity:1;fill-rule:nonzero;stroke:none"
             id="path3758"
             inkscape:connector-curvature="0" /></g><g
           id="g3760"
           transform="translate(605.5917,195.3014)"><path
             d="M 0,0 C 59.242,-85.76 7.465,-164.272 10.464,-160.344 76.075,-74.376 26.136,0 26.136,0 Z"
             style="fill:#627589;fill-opacity:1;fill-rule:nonzero;stroke:none"
             id="path3762"
             inkscape:connector-curvature="0" /></g><g
           id="g3764"
           transform="translate(648.9404,177.4704)"><path
             d="M 0,0 C 26.423,-80.465 -30.056,-142.677 -30.056,-142.677 48.807,-69.617 23.449,0 23.449,0 Z"
             style="fill:#5995cc;fill-opacity:1;fill-rule:nonzero;stroke:none"
             id="path3766"
             inkscape:connector-curvature="0" /></g><g
           id="g3768"
           transform="translate(197.2803,149.5826)"><path
             d="m 0,0 v 57.315 h -13.762 v -57.38 h -11.596 v -13.697 h 11.596 V -114.63 H 0 V -13.762 H 50.438 V -0.06 Z"
             style="fill:#2a5086;fill-opacity:1;fill-rule:nonzero;stroke:none"
             id="path3770"
             inkscape:connector-curvature="0" /></g></g></g></g></svg>