<svg xmlns="http://www.w3.org/2000/svg" viewBox="0 0 500 500"><defs><style>.cls-1{fill:#ffd58a;}.cls-2{isolation:isolate;}.cls-3{fill:#987048;}.cls-4{fill:#725333;}.cls-5{fill:#6b4e2f;}.cls-6{fill:#7b5a38;}.cls-7{fill:#795937;}.cls-8{fill:#ffc817;}</style></defs><title>centeredlogo</title><g id="Layer_2" data-name="Layer 2"><path class="cls-1" d="M253.78,131.65a10.11,10.11,0,0,0-8.76,0l-39.8,22c-2.41,1.33-2.13,2.42.62,2.42H293c2.75,0,3-1.09.62-2.42Z"/><path class="cls-1" d="M205.85,157.61a23.1,23.1,0,0,0-9.37,2.41l-26,14.35c-2.4,1.33-2.12,2.41.63,2.41H327.51c2.75,0,3-1.08.63-2.41l-26-14.35a23.1,23.1,0,0,0-9.37-2.41Z"/><path class="cls-1" d="M173.66,178.61a22.42,22.42,0,0,0-9.35,2.47L141,194.32c-2.39,1.36-2.1,2.47.65,2.47H360.4c2.75,0,3.05-1.11.66-2.47l-23.34-13.24a22.38,22.38,0,0,0-9.34-2.47Z"/><rect class="cls-1" x="137.61" y="198.65" width="227.32" height="22.51" rx="5" ry="5"/><rect class="cls-1" x="137.61" y="222.99" width="227.32" height="22.51" rx="5" ry="5"/><rect class="cls-1" x="137.61" y="247.48" width="227.32" height="22.51" rx="5" ry="5"/><rect class="cls-1" x="137.61" y="271.82" width="227.32" height="22.51" rx="5" ry="5"/><rect class="cls-1" x="137.61" y="296.06" width="227.32" height="22.51" rx="5" ry="5"/><path class="cls-1" d="M248.49,385.7a10.09,10.09,0,0,0,8.75,0l39.81-22c2.41-1.33,2.13-2.42-.62-2.42H209.3c-2.75,0-3,1.09-.62,2.42Z"/><path class="cls-1" d="M296.41,359.74a23,23,0,0,0,9.38-2.42l26-14.34c2.41-1.33,2.13-2.42-.62-2.42H174.75c-2.75,0-3,1.09-.62,2.42l26,14.34a23,23,0,0,0,9.38,2.42Z"/><path class="cls-1" d="M329.61,338.74a22.38,22.38,0,0,0,9.34-2.47L362.29,323c2.39-1.36,2.09-2.47-.66-2.47H142.86c-2.75,0-3,1.11-.65,2.47l23.33,13.24a22.46,22.46,0,0,0,9.35,2.47Z"/><g class="cls-2"><path class="cls-3" d="M45,150.29a4.31,4.31,0,1,1-4.3,4.31A4.31,4.31,0,0,1,45,150.29Z"/><polygon class="cls-4" points="53.01 149.95 53.01 149.95 155.29 149.79 155.29 149.79 53.01 149.95"/><path class="cls-3" d="M53,150h-.35v9.84A9.31,9.31,0,1,1,53,150Zm-8.06,9a4.31,4.31,0,1,0-4.3-4.3,4.31,4.31,0,0,0,4.3,4.3"/><polygon class="cls-5" points="198.1 132.62 198.1 132.62 199.37 131.75 199.37 131.75 198.1 132.62"/><polygon class="cls-5" points="155.29 149.79 155.29 149.79 186.76 128.26 186.76 128.26 155.29 149.79"/><polygon class="cls-3" points="193.73 123.49 199.37 131.75 198.1 132.62 158.39 159.78 52.67 159.95 52.66 149.95 53.01 149.95 155.29 149.79 186.76 128.26 193.73 123.49"/><polygon class="cls-6" points="193.73 123.49 193.73 123.49 199.37 131.75 199.37 131.75 193.73 123.49"/><polygon class="cls-5" points="186.76 128.26 186.76 128.26 193.73 123.49 193.73 123.49 186.76 128.26"/><rect class="cls-4" x="197.75" y="122.62" width="190.22"/><path class="cls-3" d="M103.58,108.62a9.3,9.3,0,1,1-8.16-4.84A9.26,9.26,0,0,1,103.58,108.62Zm-8.16,8.78a4.31,4.31,0,1,0-4.3-4.31,4.31,4.31,0,0,0,4.3,4.31"/><path class="cls-3" d="M95.42,108.79a4.31,4.31,0,1,1-4.3,4.3A4.31,4.31,0,0,1,95.42,108.79Z"/><rect class="cls-4" x="103.58" y="108.62" width="66.55"/><polygon class="cls-7" points="170.13 108.62 170.13 108.62 197.75 122.62 197.75 122.62 170.13 108.62"/><path class="cls-3" d="M170.13,108.62l27.62,14H388v10H198.1l1.27-.87-5.64-8.26-7,4.77-19-9.64H102.9a9.27,9.27,0,0,0,.68-10Z"/></g><path class="cls-1" d="M373.79,159.39c-28.3-9.81-18.71-33.5-18.71-33.5C386.69,136.5,373.79,159.39,373.79,159.39Z"/><path class="cls-8" d="M349.2,131C357.14,94.36,388,102.72,388,102.72,379.55,143.55,349.2,131,349.2,131Z"/><path class="cls-8" d="M348.32,128.26c-27.56-8.37-19.23-31.48-19.23-31.48C359.86,105.79,348.32,128.26,348.32,128.26Z"/><path class="cls-8" d="M351.21,126.51c-10,23.81-29.88,14.22-29.88,14.22C332.24,114.12,351.21,126.51,351.21,126.51Z"/><path class="cls-1" d="M343.25,126.77c-1.61-29.92,23.94-30,23.94-30C369.32,130.06,343.25,126.77,343.25,126.77Z"/><path class="cls-1" d="M364.84,133.42c12.71-20.41,29.53-8.69,29.53-8.69C380.46,147.57,364.84,133.42,364.84,133.42Z"/><path class="cls-8" d="M343.05,161.49c-11.82-27.53,12.14-36.4,12.14-36.4C368.65,155.6,343.05,161.49,343.05,161.49Z"/><path class="cls-8" d="M68.45,174.05c6.28-29.29,31-22.66,31-22.66C92.74,184.06,68.45,174.05,68.45,174.05Z"/><path class="cls-1" d="M96.45,163.83c-28-10.72-17.62-34.08-17.62-34.08C110.08,141.37,96.45,163.83,96.45,163.83Z"/></g></svg>