<svg xmlns="http://www.w3.org/2000/svg" xmlns:xlink="http://www.w3.org/1999/xlink" viewBox="0 0 100 100"><defs><style>.cls-1{fill:none;}.cls-2{fill:#ffca17;}.cls-3{clip-path:url(#clip-path);}.cls-4{fill:#fff;}</style><clipPath id="clip-path"><rect class="cls-1" x="32" y="28.7" width="34.51" height="35.3"/></clipPath></defs><title>insta</title><g id="Layer_2" data-name="Layer 2"><polygon class="cls-2" points="49.67 14.79 20.63 30.84 20.63 62.95 49.67 79 78.7 62.95 78.7 30.84 49.67 14.79"/><g class="cls-3"><path class="cls-4" d="M49.47,61.17h0c2.67,0,5.34,0,8,0,2.89,0,6.17-3.33,6.23-6.1.13-5.55.11-11.1.08-16.65,0-3.06-3.63-6.83-6.52-6.83q-8.25,0-16.49,0a5.84,5.84,0,0,0-4.07,2.12,7.29,7.29,0,0,0-2,5.45c.08,4.52,0,9,0,13.56a7.7,7.7,0,0,0,1.69,5.55c1.38,1.55,2.86,2.84,5,2.88,2.67.05,5.34,0,8,0m17-14.51c0,2.31,0,4.61,0,6.92a10.13,10.13,0,0,1-4.62,8.84A8.65,8.65,0,0,1,57,64c-5,0-10,0-15,0a9.26,9.26,0,0,1-5.87-2.3A11,11,0,0,1,32,52.43c.08-4.45,0-8.92,0-13.38a10.13,10.13,0,0,1,4.71-8.79,9.05,9.05,0,0,1,5.13-1.56c4.82,0,9.64,0,14.46,0a9.6,9.6,0,0,1,6.28,2.46A10.68,10.68,0,0,1,66.51,40c0,2.22,0,4.43,0,6.65"/><path class="cls-4" d="M55.44,46.39A6.4,6.4,0,0,0,49.29,40a6.41,6.41,0,0,0,0,12.81,6.4,6.4,0,0,0,6.2-6.38m2.59,0a8.77,8.77,0,1,1-17.54-.07A8.77,8.77,0,1,1,58,46.41"/><path class="cls-4" d="M60.62,37a2.47,2.47,0,0,1-2.37,2.34A2.61,2.61,0,0,1,55.86,37a2.41,2.41,0,0,1,2.47-2.35A2.23,2.23,0,0,1,60.62,37"/></g></g></svg>