<svg xmlns="http://www.w3.org/2000/svg" viewBox="0 0 1539 274"><defs><style>.cls-1{fill:#70c1ac;}.cls-2{opacity:0.85;}.cls-3{fill:#68bca8;}.cls-4{fill:#64af9b;}.cls-5{fill:#60a591;}</style></defs><title>Middle Hill</title><g id="Layer_2" data-name="Layer 2"><g id="Middle_Hill" data-name="Middle Hill"><path class="cls-1" d="M1539,274V71s-235.21,47-515,47S580.88,57,339.2,57,0,118,0,118V274"/><g class="cls-2"><path class="cls-3" d="M271,93.39l-.13-23.94,8.32,0L273.44,77l16.6-.08.09,15.57h2.57L292.61,77l16.52-.09L298.22,64.14l6.18,0L294.21,52.19l6.47,0L292,42l3.84,0-6.3-7.38L284,42,273.41,29.63l10-.07L269.81,13.7h6.3L265.82,2,256.6,14.14l6.36,0-12.17,16,9.74-.05L248.18,46.25l-3.24-3.79h3.63l-6.41-7.39L236.4,42.9l3.88,0-7.41,9.76,6.15,0-9.12,12,5.69,0-9.8,12.86,16.91-.1.08,15.58h2.57l-.08-15.47,16.51-.09-6.34-7.44,10.71-.06.13,23.52L240,93.49l0,2.51,57.06-.31V93.25Zm11.63-41.2h3.82l-1.8,2.37Zm5.13-9.82L286,44.69l-2-2.3Zm-4.87,6.26-1.5,2-1.66-1.94Zm-27.56.43-2.46,3.23-2.74-3.19Zm-8.58,3.13,6,0-2.82,3.71Z"/></g><g class="cls-2"><path class="cls-4" d="M316,106.39l-.13-23.94,8.32,0L318.44,90l16.6-.08.09,15.57h2.57L337.61,90l16.52-.09L343.22,77.14l6.18,0L339.21,65.19l6.47,0L337,55l3.84,0-6.3-7.38L329,55,318.41,42.63l10-.07L314.81,26.7h6.3L310.82,15,301.6,27.14l6.36,0-12.17,16,9.74,0L293.18,59.25l-3.24-3.79h3.63l-6.41-7.39L281.4,55.9l3.88,0-7.41,9.76,6.15,0-9.12,12,5.69,0-9.8,12.86,16.91-.1.08,15.58h2.57l-.08-15.47,16.51-.09-6.34-7.44,10.71-.06.13,23.52-26.24.14,0,2.51,57.06-.31v-2.44Zm11.63-41.2h3.82l-1.8,2.37Zm5.13-9.82L331,57.69l-2-2.3Zm-4.87,6.26-1.5,2-1.66-1.94Zm-27.56.43-2.46,3.23-2.74-3.19Zm-8.58,3.13,6,0-2.82,3.71Z"/></g><g class="cls-2"><path class="cls-4" d="M226,91.39l-.13-23.94,8.32,0L228.44,75l16.6-.08.09,15.57h2.57L247.61,75l16.52-.09L253.22,62.14l6.18,0L249.21,50.19l6.47,0L247,40l3.84,0-6.3-7.38L239,40,228.41,27.63l10-.07L224.81,11.7h6.3L220.82,0,211.6,12.14l6.36,0-12.17,16,9.74-.05L203.18,44.25l-3.24-3.79h3.63l-6.41-7.39L191.4,40.9l3.88,0-7.41,9.76,6.15,0-9.12,12,5.69,0-9.8,12.86,16.91-.1.08,15.58h2.57l-.08-15.47,16.51-.09-6.34-7.44,10.71-.06.13,23.52L195,91.49l0,2.51,57.06-.31V91.25Zm11.63-41.2h3.82l-1.8,2.37Zm5.13-9.82L241,42.69l-2-2.3Zm-4.87,6.26-1.5,2-1.66-1.94Zm-27.56.43-2.46,3.23-2.74-3.19Zm-8.58,3.13,6,0-2.82,3.71Z"/></g><path class="cls-5" d="M255.84,122.21l-.09-16.44,5.71,0-4,5.2,11.4-.06.05,10.69h1.77l-.06-10.62,11.34-.06-7.49-8.75,4.24,0-7-8.18,4.44,0-6-7h2.64l-4.33-5.06-3.83,5-7.24-8.46,6.85,0L255,67.5h4.32l-7.06-8-6.33,8.33,4.36,0-8.35,11,6.69,0-8.48,11.14-2.22-2.61h2.49L236,82.17l-4,5.38,2.67,0-5.09,6.7,4.22,0-6.26,8.22h3.91l-6.73,8.82,11.61-.06,0,10.69h1.77l-.06-10.63,11.33-.06-4.35-5.1,7.36,0,.08,16.14-18,.1,0,1.72,39.17-.21v-1.67Zm8-28.28h2.63l-1.24,1.63Zm3.52-6.75-1.2,1.6-1.35-1.58ZM264,91.48l-1,1.35-1.14-1.33Zm-18.92.3L243.39,94l-1.88-2.19Zm-5.89,2.15,4.1,0-1.94,2.55Z"/><path class="cls-4" d="M457.1,82.25l-.09-16,5.58,0-3.86,5.08,11.12-.06.06,10.44h1.72l-.05-10.37,11.06-.06-7.3-8.54,4.13,0-6.83-8,4.34,0-5.82-6.8h2.58l-4.23-4.94-3.73,4.91-7.08-8.26,6.7-.05-9.11-10.63h4.22L453.62,21l-6.18,8.14,4.26,0-8.16,10.69,6.53,0L441.8,50.66l-2.17-2.54h2.43l-4.3-4.95-3.86,5.24h2.6l-5,6.54,4.13,0-6.12,8h3.82l-6.57,8.61,11.33-.06.06,10.44h1.72l-.06-10.38,11.07-.06-4.25-5,7.18,0,.09,15.76-17.59.1V84l38.25-.21V82.16Zm7.8-27.61h2.56l-1.21,1.59Zm3.44-6.58-1.18,1.55-1.32-1.54Zm-3.27,4.19-1,1.32L463,52.27Zm-18.47.29L445,54.71l-1.83-2.15Zm-5.75,2.1,4,0L443,57.1Z"/><path class="cls-5" d="M479.48,95.81l-.06-11,3.81,0-2.64,3.47,7.59,0,0,7.12h1.18l0-7.07,7.55,0-5-5.82,2.83,0L490.09,77h3l-4-4.64h1.75L488,68.92l-2.55,3.36-4.83-5.64,4.57,0-6.21-7.26h2.88L477.1,54l-4.21,5.55h2.9l-5.57,7.3,4.46,0L469,74.24l-1.48-1.73h1.66l-2.93-3.38-2.64,3.58h1.78L462,77.16h2.81l-4.17,5.48h2.6l-4.48,5.88,7.73,0,0,7.12h1.18l0-7.08,7.55,0-2.9-3.4,4.9,0,.06,10.76-12,.06V97l26.1-.14V95.74ZM484.8,77h1.75L485.72,78Zm2.35-4.49-.81,1.06-.9-1Zm-2.23,2.86-.68.9-.77-.89Zm-12.61.2L471.19,77l-1.26-1.47ZM468.39,77l2.73,0-1.29,1.7Z"/><path class="cls-5" d="M442.48,103.81l-.06-11,3.81,0-2.64,3.47,7.59,0,0,7.12h1.18l0-7.07,7.55,0-5-5.82,2.83,0L453.09,85h3l-4-4.64h1.75L451,76.92l-2.55,3.36-4.83-5.64,4.57,0-6.21-7.26h2.88L440.1,62l-4.21,5.55h2.9l-5.57,7.3,4.46,0L432,82.24l-1.48-1.73h1.66l-2.93-3.38-2.64,3.58h1.78L425,85.16h2.81l-4.17,5.48h2.6l-4.48,5.88,7.73,0,0,7.12h1.18l0-7.08,7.55,0-2.9-3.4,4.9,0,.06,10.76-12,.06V105l26.1-.14v-1.12ZM447.8,85h1.75L448.72,86Zm2.35-4.49-.81,1.06-.9-1Zm-2.23,2.86-.68.9-.77-.89Zm-12.61.2L434.19,85l-1.26-1.47ZM431.39,85l2.73,0-1.29,1.7Z"/></g></g></svg>